<svg width="40" height="40" viewBox="0 0 40 40" fill="none" xmlns="http://www.w3.org/2000/svg">
<path d="M39.4531 17.8897H36.1125C35.6421 14.341 34.0154 11.0461 31.4842 8.51478C28.9529 5.98347 25.6581 4.35675 22.1094 3.88625V0.545937C22.1091 0.40106 22.0514 0.262201 21.9489 0.159844C21.8463 0.0574881 21.7074 -2.12881e-07 21.5625 0L18.4375 0C18.2925 0 18.1534 0.057617 18.0508 0.160176C17.9482 0.262735 17.8906 0.401835 17.8906 0.546875V3.88625C14.3419 4.35675 11.0471 5.98347 8.51583 8.51478C5.98457 11.0461 4.35792 14.341 3.8875 17.8897H0.546876C0.47498 17.8897 0.40379 17.9039 0.337379 17.9314C0.270968 17.9589 0.210639 17.9993 0.159845 18.0502C0.109051 18.1011 0.0687877 18.1615 0.0413598 18.2279C0.0139319 18.2944 -0.000122446 18.3656 8.03645e-07 18.4375V21.5625C8.03645e-07 21.7075 0.0576178 21.8466 0.160177 21.9492C0.262736 22.0518 0.401836 22.1094 0.546876 22.1094H3.8875C4.35792 25.6581 5.98457 28.953 8.51583 31.4843C11.0471 34.0156 14.3419 35.6423 17.8906 36.1128V39.4531C17.8906 39.5982 17.9482 39.7373 18.0508 39.8398C18.1534 39.9424 18.2925 40 18.4375 40H21.5625C21.7075 40 21.8466 39.9424 21.9492 39.8398C22.0518 39.7373 22.1094 39.5982 22.1094 39.4531V36.1119C25.6581 35.6414 28.9529 34.0147 31.4842 31.4833C34.0154 28.952 35.6421 25.6572 36.1125 22.1084H39.4531C39.598 22.1084 39.737 22.0509 39.8395 21.9486C39.942 21.8462 39.9998 21.7074 40 21.5625V18.4375C40.0001 18.3656 39.9861 18.2944 39.9586 18.2279C39.9312 18.1615 39.891 18.1011 39.8402 18.0502C39.7894 17.9993 39.729 17.9589 39.6626 17.9314C39.5962 17.9039 39.525 17.8897 39.4531 17.8897ZM38.9062 21.0147H35.625C35.4893 21.0147 35.3585 21.0651 35.2579 21.1562C35.1574 21.2472 35.0943 21.3725 35.0809 21.5075C34.7276 24.9868 33.1841 28.2374 30.7112 30.7103C28.2384 33.1832 24.9877 34.7267 21.5084 35.08C21.3733 35.0934 21.248 35.1567 21.1569 35.2574C21.0658 35.3581 21.0154 35.4892 21.0156 35.625V38.9062H18.9844V35.625C18.9843 35.4893 18.9339 35.3585 18.8428 35.258C18.7517 35.1575 18.6266 35.0943 18.4916 35.0809C15.0121 34.7276 11.7614 33.1839 9.28849 30.7109C6.8156 28.2378 5.2722 24.9869 4.91906 21.5075C4.90572 21.3725 4.84264 21.2472 4.74208 21.1562C4.64152 21.0651 4.51068 21.0147 4.375 21.0147H1.09375V18.9834H4.375C4.51068 18.9835 4.64152 18.933 4.74208 18.842C4.84264 18.7509 4.90572 18.6256 4.91906 18.4906C5.2724 15.0114 6.81589 11.7607 9.28876 9.28782C11.7616 6.81495 15.0123 5.27147 18.4916 4.91813C18.6264 4.9048 18.7515 4.84185 18.8426 4.74149C18.9336 4.64113 18.9842 4.51052 18.9844 4.375V1.09375H21.0156V4.375C21.0156 4.51068 21.066 4.64152 21.1571 4.74208C21.2482 4.84263 21.3734 4.90572 21.5084 4.91906C24.9876 5.27237 28.2381 6.81572 30.711 9.2884C33.1838 11.7611 34.7274 15.0115 35.0809 18.4906C35.0943 18.6256 35.1574 18.7509 35.2579 18.842C35.3585 18.933 35.4893 18.9835 35.625 18.9834H38.9062V21.0147Z" fill="#FFE70E"/>
<path d="M19.9999 6.875C17.4041 6.875 14.8665 7.64477 12.7081 9.08696C10.5497 10.5292 8.86743 12.579 7.87403 14.9773C6.88063 17.3756 6.62071 20.0146 7.12714 22.5606C7.63357 25.1066 8.8836 27.4452 10.7192 29.2808C12.5547 31.1163 14.8934 32.3664 17.4394 32.8728C19.9854 33.3792 22.6244 33.1193 25.0227 32.1259C27.4209 31.1325 29.4708 29.4503 30.913 27.2919C32.3552 25.1335 33.1249 22.5959 33.1249 20C33.1211 16.5202 31.737 13.1841 29.2764 10.7235C26.8159 8.26294 23.4797 6.87889 19.9999 6.875ZM19.9999 32.0312C17.6204 32.0312 15.2943 31.3256 13.3157 30.0036C11.3372 28.6816 9.79514 26.8026 8.88452 24.6042C7.9739 22.4057 7.73564 19.9867 8.19987 17.6528C8.6641 15.319 9.80997 13.1752 11.4926 11.4926C13.1752 9.81002 15.3189 8.66416 17.6528 8.19993C19.9866 7.7357 22.4057 7.97396 24.6041 8.88457C26.8025 9.79519 28.6816 11.3373 30.0036 13.3158C31.3256 15.2943 32.0312 17.6204 32.0312 20C32.0276 23.1898 30.7588 26.2479 28.5033 28.5034C26.2478 30.7589 23.1897 32.0276 19.9999 32.0312Z" fill="#FFE70E"/>
<path d="M22.1098 12.4779V11.2104C22.1098 11.0654 22.0522 10.9263 21.9497 10.8237C21.8471 10.7212 21.708 10.6636 21.563 10.6636H18.438C18.2929 10.6636 18.1538 10.7212 18.0513 10.8237C17.9487 10.9263 17.8911 11.0654 17.8911 11.2104V12.4779C16.6018 12.8424 15.4274 13.5312 14.4799 14.4787C13.5325 15.4261 12.8437 16.6005 12.4792 17.8898H11.212C11.1401 17.8898 11.0689 17.9039 11.0025 17.9315C10.9361 17.959 10.8757 17.9993 10.8249 18.0502C10.7741 18.1011 10.7339 18.1615 10.7064 18.228C10.679 18.2945 10.665 18.3657 10.6652 18.4376V21.5626C10.6651 21.6345 10.6792 21.7056 10.7067 21.772C10.7342 21.8383 10.7745 21.8986 10.8252 21.9494C10.876 22.0002 10.9363 22.0405 11.0027 22.068C11.0691 22.0954 11.1402 22.1096 11.212 22.1095H12.4792C12.8438 23.3987 13.5327 24.5729 14.4801 25.5201C15.4275 26.4674 16.6019 27.1561 17.8911 27.5204V28.7879C17.8911 28.933 17.9487 29.0721 18.0513 29.1746C18.1538 29.2772 18.2929 29.3348 18.438 29.3348H21.563C21.708 29.3348 21.8471 29.2772 21.9497 29.1746C22.0522 29.0721 22.1098 28.933 22.1098 28.7879V27.5204C23.3992 27.156 24.5736 26.4672 25.521 25.5197C26.4684 24.5723 27.1572 23.3979 27.5217 22.1086H28.7889C28.9338 22.1087 29.0728 22.0512 29.1754 21.9488C29.2779 21.8464 29.3356 21.7075 29.3358 21.5626V18.4376C29.3358 18.3658 29.3217 18.2947 29.2942 18.2283C29.2668 18.1619 29.2265 18.1016 29.1757 18.0508C29.1249 18.0001 29.0646 17.9598 28.9982 17.9323C28.9319 17.9048 28.8607 17.8907 28.7889 17.8908H27.5217C27.1574 16.6013 26.4686 15.4267 25.5212 14.4791C24.5738 13.5315 23.3993 12.8425 22.1098 12.4779ZM28.242 21.0148H27.0942C26.9696 21.0148 26.8487 21.0573 26.7515 21.1354C26.6544 21.2135 26.5869 21.3225 26.5602 21.4442C26.2821 22.6951 25.6531 23.8408 24.747 24.7469C23.8409 25.6529 22.6951 26.2818 21.4442 26.5598C21.3227 26.5868 21.2141 26.6545 21.1363 26.7516C21.0584 26.8487 21.016 26.9694 21.0161 27.0939V28.2411H18.9848V27.0939C18.9849 26.9693 18.9423 26.8485 18.8643 26.7513C18.7863 26.6542 18.6774 26.5867 18.5558 26.5598C17.3049 26.2818 16.1592 25.6529 15.253 24.7469C14.3469 23.8408 13.7179 22.6951 13.4399 21.4442C13.4132 21.3226 13.3458 21.2138 13.2488 21.1357C13.1519 21.0576 13.0312 21.015 12.9067 21.0148H11.7599V18.9836H12.9067C13.0314 18.9836 13.1523 18.9411 13.2494 18.863C13.3465 18.7849 13.4141 18.6759 13.4408 18.5542C13.7186 17.3033 14.3474 16.1575 15.2534 15.2512C16.1594 14.345 17.3049 13.7159 18.5558 13.4376C18.6774 13.4108 18.7863 13.3432 18.8643 13.2461C18.9423 13.149 18.9849 13.0282 18.9848 12.9036V11.7573H21.0161V12.9045C21.0163 13.0289 21.0589 13.1496 21.1369 13.2465C21.2149 13.3434 21.3237 13.4108 21.4452 13.4376C22.6961 13.7156 23.8418 14.3446 24.7479 15.2506C25.654 16.1567 26.283 17.3024 26.5611 18.5533C26.5876 18.675 26.6549 18.7841 26.7519 18.8623C26.8488 18.9406 26.9696 18.9834 27.0942 18.9836H28.2411L28.242 21.0148Z" fill="#FFE70E"/>
<path d="M20 15.3125C19.0729 15.3125 18.1666 15.5874 17.3958 16.1025C16.6249 16.6176 16.0241 17.3496 15.6693 18.2062C15.3145 19.0627 15.2217 20.0052 15.4026 20.9145C15.5834 21.8238 16.0299 22.659 16.6854 23.3146C17.341 23.9701 18.1762 24.4166 19.0855 24.5974C19.9948 24.7783 20.9373 24.6855 21.7938 24.3307C22.6504 23.9759 23.3824 23.3751 23.8975 22.6042C24.4126 21.8334 24.6875 20.9271 24.6875 20C24.6861 18.7572 24.1918 17.5658 23.313 16.687C22.4342 15.8082 21.2428 15.3139 20 15.3125ZM20 23.5937C19.2892 23.5937 18.5944 23.383 18.0034 22.9881C17.4124 22.5932 16.9518 22.0319 16.6798 21.3753C16.4078 20.7186 16.3366 19.996 16.4753 19.2989C16.614 18.6018 16.9562 17.9614 17.4588 17.4588C17.9614 16.9562 18.6018 16.614 19.2989 16.4753C19.996 16.3366 20.7186 16.4078 21.3753 16.6798C22.0319 16.9518 22.5932 17.4124 22.9881 18.0034C23.383 18.5944 23.5938 19.2892 23.5938 20C23.5927 20.9528 23.2137 21.8663 22.54 22.54C21.8663 23.2137 20.9528 23.5927 20 23.5937Z" fill="#FFE70E"/>
</svg>
