<svg width="52" height="168" viewBox="0 0 52 168" fill="none" xmlns="http://www.w3.org/2000/svg">
<path d="M32.3195 76.3125H19.5229C18.9137 76.3125 18.3295 76.5545 17.8988 76.9852C17.4681 77.416 17.2261 78.0002 17.2261 78.6093V128.793C17.2261 129.402 17.4681 129.986 17.8988 130.417C18.3295 130.848 18.9137 131.09 19.5229 131.09H32.3195C32.9287 131.09 33.5129 130.848 33.9436 130.417C34.3744 129.986 34.6164 129.402 34.6164 128.793V78.6093C34.6164 78.0002 34.3744 77.416 33.9436 76.9852C33.5129 76.5545 32.9287 76.3125 32.3195 76.3125ZM30.0227 126.496H21.8197V80.9062H30.0227V126.496Z" fill="#FFE70E"/>
<path d="M43.0269 150.366H40.9361L44.9575 140.128C44.9693 140.098 44.9706 140.068 44.9811 140.038C45.0247 139.913 45.0576 139.786 45.0796 139.656C45.0889 139.592 45.0951 139.528 45.0979 139.464C45.0979 139.405 45.1163 139.349 45.1163 139.288V68.1102C45.1163 68.0511 45.1032 67.9947 45.0993 67.9356C45.0954 67.86 45.0875 67.7846 45.0756 67.7098C45.0594 67.626 45.0384 67.5432 45.0126 67.4618C44.9916 67.3909 44.9851 67.3187 44.9575 67.2492L39.7982 54.1244L37.4961 38.8538C36.414 31.677 34.8472 24.5817 32.8066 17.6166L28.1263 1.65036C27.9864 1.17401 27.6959 0.755786 27.2985 0.458284C26.901 0.160782 26.4179 0 25.9214 0C25.4249 0 24.9418 0.160782 24.5443 0.458284C24.1468 0.755786 23.8564 1.17401 23.7164 1.65036L19.0361 17.6127C16.9959 24.5792 15.4292 31.6758 14.3467 38.8538L12.0446 54.1218L6.88524 67.2466C6.85768 67.3161 6.85112 67.3896 6.83012 67.4605C6.80435 67.5414 6.78331 67.6238 6.76712 67.7072C6.75529 67.782 6.7474 67.8574 6.7435 67.933C6.7435 67.992 6.72643 68.0485 6.72643 68.1075V139.291C6.72643 139.351 6.73956 139.408 6.7435 139.467C6.74743 139.526 6.75268 139.598 6.76318 139.658C6.78452 139.788 6.81747 139.915 6.86162 140.039C6.87212 140.069 6.87343 140.101 6.88524 140.131L10.9067 150.368H8.81589C6.47777 150.368 4.23542 151.297 2.58212 152.95C0.928817 154.604 0 156.846 0 159.184C0 161.522 0.928817 163.765 2.58212 165.418C4.23542 167.071 6.47777 168 8.81589 168H43.0269C45.365 168 47.6073 167.071 49.2606 165.418C50.9139 163.765 51.8428 161.522 51.8428 159.184C51.8428 156.846 50.9139 154.604 49.2606 152.95C47.6073 151.297 45.365 150.368 43.0269 150.368V150.366ZM15.8416 57.0184H36.0012L39.4491 65.7936H12.3937L15.8416 57.0184ZM11.3201 70.4057H40.5227V136.995H11.3201V70.4057ZM18.8891 39.5323C19.9403 32.5613 21.4623 25.6695 23.4447 18.9042L25.9214 10.4597L28.398 18.9042C30.3796 25.6702 31.9016 32.5624 32.9536 39.5336L34.8974 52.4248H16.9454L18.8891 39.5323ZM12.3937 141.589H39.4491L36.0012 150.364H15.8416L12.3937 141.589ZM43.0269 163.402H8.81589C7.69609 163.402 6.62215 162.958 5.83033 162.166C5.0385 161.374 4.59366 160.3 4.59366 159.18C4.59366 158.06 5.0385 156.986 5.83033 156.195C6.62215 155.403 7.69609 154.958 8.81589 154.958H43.0269C44.1467 154.958 45.2206 155.403 46.0124 156.195C46.8043 156.986 47.2491 158.06 47.2491 159.18C47.2491 160.3 46.8043 161.374 46.0124 162.166C45.2206 162.958 44.1467 163.402 43.0269 163.402Z" fill="#FFE70E"/>
</svg>
