<svg width="69" height="69" viewBox="0 0 69 69" fill="none" xmlns="http://www.w3.org/2000/svg">
<g clip-path="url(#clip0)">
<path d="M65.3613 41.8748H65.2233V38.8178C65.1802 36.4265 65.3355 30.6413 65.1069 28.1443C64.4342 20.2541 60.7407 12.9284 54.797 7.69569C48.8533 2.46303 41.1185 -0.272335 33.2067 0.0603512C25.2948 0.393038 17.817 3.76807 12.3335 9.48124C6.85006 15.1944 3.78457 22.8043 3.77667 30.7232V33.5587H3.63867C2.67364 33.5587 1.74813 33.942 1.06574 34.6244C0.383359 35.3068 0 36.2323 0 37.1974C0 38.1624 0.383359 39.0879 1.06574 39.7703C1.74813 40.4527 2.67364 40.836 3.63867 40.836H32.4149V58.0515H31.8047C31.5545 58.0515 31.3145 58.1509 31.1376 58.3278C30.9607 58.5047 30.8613 58.7447 30.8613 58.9949V63.6443C30.8613 63.7682 30.8856 63.8909 30.933 64.0054C30.9804 64.1199 31.0499 64.2239 31.1375 64.3115C31.2251 64.3991 31.3291 64.4686 31.4436 64.516C31.5581 64.5634 31.6808 64.5877 31.8047 64.5877H32.4149V68.0565C32.4148 68.1804 32.4392 68.3031 32.4866 68.4176C32.534 68.5321 32.6034 68.6361 32.6911 68.7237C32.7787 68.8113 32.8827 68.8808 32.9972 68.9282C33.1117 68.9756 33.2344 69 33.3583 68.9999H39.082C39.2059 69 39.3286 68.9756 39.4431 68.9282C39.5576 68.8808 39.6616 68.8113 39.7492 68.7237C39.8369 68.6361 39.9063 68.5321 39.9537 68.4176C40.0011 68.3031 40.0255 68.1804 40.0254 68.0565V64.5877H40.6356C40.7595 64.5877 40.8822 64.5634 40.9967 64.516C41.1112 64.4686 41.2152 64.3991 41.3028 64.3115C41.3904 64.2239 41.4599 64.1199 41.5073 64.0054C41.5547 63.8909 41.579 63.7682 41.579 63.6443V58.9949C41.579 58.7447 41.4796 58.5047 41.3027 58.3278C41.1258 58.1509 40.8858 58.0515 40.6356 58.0515H40.0254V48.1328L40.7326 48.8632C40.8206 48.954 40.926 49.0261 41.0423 49.0755C41.1587 49.1249 41.2838 49.1504 41.4102 49.1505H65.3613C66.3264 49.1505 67.2519 48.7672 67.9343 48.0848C68.6166 47.4024 69 46.4769 69 45.5119C69 44.5468 68.6166 43.6213 67.9343 42.9389C67.2519 42.2565 66.3264 41.8732 65.3613 41.8732V41.8748ZM63.3075 29.5766C63.3587 29.9917 63.3296 37.3354 63.3366 37.8744H49.2035C48.7559 37.8665 48.3293 37.6831 48.0156 37.3637C47.7018 37.0444 47.5261 36.6146 47.5261 36.1669C47.5261 35.7193 47.7018 35.2895 48.0156 34.9701C48.3293 34.6508 48.7559 34.4674 49.2035 34.4595H50.1867C51.137 34.4583 52.048 34.0803 52.7199 33.4084C53.3918 32.7365 53.7698 31.8255 53.7709 30.8752C53.7714 30.4253 53.9503 29.9939 54.2684 29.6758C54.5866 29.3576 55.018 29.1787 55.4679 29.1783H63.2876C63.2978 29.3146 63.3016 29.444 63.3075 29.5766ZM38.6104 4.18948V3.26499C38.6099 3.07335 38.6504 2.88383 38.729 2.70907C38.8077 2.53432 38.9227 2.37834 39.0664 2.25155C45.0025 3.23043 50.4905 6.0215 54.7779 10.2421H31.9028C31.5418 10.2369 31.1973 10.0904 30.9432 9.83391C30.6892 9.57746 30.5459 9.23156 30.5441 8.87057C30.5423 8.50958 30.6823 8.1623 30.9338 7.90337C31.1853 7.64444 31.5284 7.49453 31.8893 7.48585L35.3765 7.45243C36.2359 7.44168 37.0566 7.09354 37.6616 6.48312C38.2665 5.87269 38.6073 5.04891 38.6104 4.18948ZM5.87578 27.2764C6.27553 23.9724 7.24415 20.7626 8.73874 17.7889C9.91065 15.471 11.3855 13.319 13.1246 11.3897H15.9697C16.4701 11.3897 16.95 11.5885 17.3038 11.9423C17.6577 12.2962 17.8564 12.7761 17.8564 13.2765C17.8577 14.2768 18.2557 15.2359 18.9631 15.9433C19.6705 16.6506 20.6295 17.0486 21.6299 17.0499H27.9639C28.4643 17.0499 28.9441 17.2487 29.298 17.6025C29.6518 17.9563 29.8506 18.4362 29.8506 18.9366V19.6104C29.8506 20.1108 29.6518 20.5907 29.298 20.9446C28.9441 21.2984 28.4643 21.4972 27.9639 21.4972H26.0771C25.0768 21.4984 24.1177 21.8964 23.4103 22.6038C22.703 23.3112 22.305 24.2702 22.3037 25.2706V25.4054C22.3037 25.9058 22.1049 26.3856 21.7511 26.7395C21.3973 27.0933 20.9174 27.2921 20.417 27.2921H5.87578V27.2764ZM5.66016 30.7264C5.66016 30.2079 5.67525 29.6931 5.70274 29.1815H20.4138C21.4141 29.1802 22.3732 28.7822 23.0806 28.0749C23.7879 27.3675 24.1859 26.4084 24.1872 25.4081V25.2733C24.1872 24.7729 24.386 24.293 24.7398 23.9392C25.0936 23.5854 25.5735 23.3866 26.0739 23.3866H27.9606C28.961 23.3853 29.9201 22.9873 30.6274 22.2799C31.3348 21.5726 31.7328 20.6135 31.7341 19.6131V18.9393C31.7328 17.9389 31.3348 16.9799 30.6274 16.2725C29.9201 15.5651 28.961 15.1672 27.9606 15.1659H21.6299C21.1295 15.1659 20.6496 14.9671 20.2958 14.6133C19.9419 14.2594 19.7432 13.7795 19.7432 13.2792C19.7419 12.2788 19.3439 11.3197 18.6365 10.6123C17.9292 9.90497 16.9701 9.507 15.9697 9.50572H14.9994C20.3097 4.60327 27.2728 1.8827 34.5 1.88661C35.3377 1.88661 36.1646 1.93027 36.9845 2.00089C36.8131 2.4003 36.7243 2.83032 36.7236 3.26499V4.18948C36.7225 4.55234 36.5788 4.9002 36.3234 5.15799C36.0681 5.41577 35.7216 5.5628 35.3587 5.56733L31.8715 5.60075C31.0202 5.62633 30.2126 5.98353 29.621 6.59615C29.0293 7.20878 28.7005 8.02834 28.7045 8.88001C28.7086 9.73169 29.0453 10.5481 29.6428 11.155C30.2403 11.7619 31.0513 12.1114 31.9028 12.1288H56.518C60.1597 16.4256 62.4571 21.6987 63.1242 27.2915H55.4695C54.5194 27.2925 53.6084 27.6704 52.9366 28.3423C52.2647 29.0141 51.8868 29.9251 51.8858 30.8752C51.8854 31.3256 51.7062 31.7573 51.3876 32.0756C51.069 32.3939 50.6371 32.5727 50.1867 32.5727H49.2035C48.2579 32.5843 47.3549 32.9681 46.6903 33.6409C46.0257 34.3137 45.653 35.2212 45.653 36.1669C45.653 37.1126 46.0257 38.0202 46.6903 38.693C47.3549 39.3658 48.2579 39.7496 49.2035 39.7611H63.3366V41.8748H44.0953L36.3193 33.8455C36.2314 33.7547 36.1261 33.6825 36.0097 33.6332C35.8933 33.584 35.7681 33.5586 35.6417 33.5587H5.66339L5.66016 30.7264ZM39.689 59.9436V62.7063H32.748V59.9382H39.6923L39.689 59.9436ZM38.1387 67.1132H34.3016V64.5877H38.1387V67.1132ZM38.1387 58.0515H34.3016V42.223L36.0094 43.9874L38.1387 46.1862V58.0515ZM65.3613 47.2654H41.8097L39.7612 45.1485L34.0359 39.2361C33.9037 39.1075 33.7395 39.0165 33.5604 38.9725C33.494 38.9577 33.4263 38.9499 33.3583 38.9493H3.63867C3.17402 38.9493 2.72841 38.7647 2.39985 38.4362C2.0713 38.1076 1.88672 37.662 1.88672 37.1974C1.88672 36.7327 2.0713 36.2871 2.39985 35.9585C2.72841 35.63 3.17402 35.4454 3.63867 35.4454H35.2423L43.0172 43.4742C43.1051 43.5651 43.2104 43.6373 43.3268 43.6867C43.4432 43.736 43.5684 43.7615 43.6948 43.7615H65.3613C65.826 43.7615 66.2716 43.9461 66.6001 44.2747C66.9287 44.6032 67.1133 45.0488 67.1133 45.5135C67.1133 45.9781 66.9287 46.4237 66.6001 46.7523C66.2716 47.0808 65.826 47.2654 65.3613 47.2654Z" fill="#FFE70E"/>
<path d="M40.0928 30.2565C40.9503 30.2555 41.7724 29.9144 42.3787 29.3081C42.9851 28.7017 43.3261 27.8796 43.3271 27.0221V26.2809C43.3271 25.9235 43.4691 25.5807 43.7219 25.328C43.9746 25.0752 44.3174 24.9333 44.6748 24.9333H48.0439C48.9014 24.9323 49.7235 24.5912 50.3299 23.9848C50.9362 23.3785 51.2773 22.5564 51.2783 21.6989V19.4062C51.2775 18.5487 50.9364 17.7265 50.33 17.1201C49.7237 16.5138 48.9015 16.1727 48.0439 16.1719H40.9014C40.0438 16.1727 39.2216 16.5138 38.6153 17.1201C38.0089 17.7265 37.6678 18.5487 37.667 19.4062V21.832C37.667 22.1895 37.525 22.5322 37.2723 22.785C37.0195 23.0377 36.6768 23.1797 36.3193 23.1797C35.4618 23.1805 34.6396 23.5216 34.0332 24.128C33.4269 24.7343 33.0858 25.5565 33.085 26.4141V27.0205C33.086 27.878 33.427 28.7001 34.0334 29.3065C34.6397 29.9128 35.4618 30.2539 36.3193 30.2549L40.0928 30.2565ZM34.9717 27.0221V26.4141C34.9717 26.0566 35.1137 25.7139 35.3664 25.4611C35.6191 25.2084 35.9619 25.0664 36.3193 25.0664C37.1768 25.0654 37.9989 24.7243 38.6053 24.118C39.2116 23.5116 39.5527 22.6895 39.5537 21.832V19.4062C39.5537 19.0488 39.6957 18.706 39.9484 18.4533C40.2012 18.2006 40.5439 18.0586 40.9014 18.0586H48.0439C48.4014 18.0586 48.7441 18.2006 48.9969 18.4533C49.2496 18.706 49.3916 19.0488 49.3916 19.4062V21.6973C49.3916 22.0547 49.2496 22.3975 48.9969 22.6502C48.7441 22.9029 48.4014 23.0449 48.0439 23.0449H44.6748C43.8173 23.0458 42.9951 23.3868 42.3887 23.9932C41.7823 24.5996 41.4413 25.4218 41.4404 26.2793V27.0205C41.4404 27.3779 41.2984 27.7207 41.0457 27.9734C40.793 28.2262 40.4502 28.3682 40.0928 28.3682H36.3193C35.9622 28.3682 35.6197 28.2264 35.367 27.974C35.1143 27.7216 34.9721 27.3793 34.9717 27.0221Z" fill="#FFE70E"/>
</g>
<defs>
<clipPath id="clip0">
<rect width="69" height="69" fill="white"/>
</clipPath>
</defs>
</svg>
