<svg width="67" height="66" viewBox="0 0 67 66" fill="none" xmlns="http://www.w3.org/2000/svg">
<path d="M65.6202 32.9693C65.6613 32.816 65.6612 32.6547 65.6202 32.5015C65.5213 32.132 65.3019 31.7699 63.373 30.4679C62.4766 29.8628 61.4361 29.2151 61.1047 29.04C59.6453 28.2696 59.1214 28.2354 57.5294 28.2357L57.4506 28.2357C57.4426 28.2357 57.4346 28.2358 57.4266 28.236L52.141 28.3761C51.6418 28.3892 51.2479 28.8046 51.2611 29.3039C51.2744 29.803 51.6898 30.197 52.1889 30.1837L57.4626 30.044L57.5297 30.044C58.9499 30.0437 59.1324 30.0437 60.2603 30.6392C60.7672 30.9069 62.5337 32.0425 63.45 32.7355C62.5335 33.4285 60.7672 34.5641 60.2603 34.8317C59.1325 35.4272 58.9501 35.4271 57.5302 35.427L57.4627 35.4271L24.3409 34.5489L24.3408 30.9218L44.0545 30.3992C44.5537 30.386 44.9477 29.9706 44.9344 29.4714C44.9211 28.9723 44.5057 28.5783 44.0066 28.5915L24.3406 29.1129C24.3391 28.3926 24.0567 27.7142 23.5448 27.2023C23.0315 26.689 22.3509 26.4063 21.6283 26.4063C20.9057 26.4063 20.225 26.689 19.7117 27.2023C19.4049 27.5091 19.1813 27.876 19.0503 28.2756L9.69471 29.0551C9.30407 28.036 8.31604 27.3104 7.16133 27.3103C5.66573 27.3104 4.44895 28.5271 4.44882 30.0228L4.44882 35.4478C4.44882 36.1957 4.75308 36.8738 5.24422 37.3649C5.73536 37.856 6.4135 38.1603 7.16127 38.1603C8.31604 38.1603 9.30401 37.4346 9.69464 36.4155L19.0506 37.1951C19.1848 37.6043 19.4132 37.9711 19.7111 38.269C20.2023 38.7601 20.8805 39.0644 21.6283 39.0645C22.3508 39.0644 23.0315 38.7818 23.5447 38.2685C24.0567 37.7566 24.339 37.0782 24.3406 36.3579L57.4265 37.2349C57.4344 37.2351 57.4424 37.2353 57.4504 37.2352L57.5299 37.2352C59.1215 37.2354 59.6454 37.2011 61.1046 36.4307C61.4359 36.2558 62.4763 35.6081 63.3728 35.003C65.3022 33.7009 65.5214 33.3388 65.6202 32.9693ZM17.1075 35.2188L17.1074 30.2522L18.9158 30.1015L18.9158 35.3694L17.1075 35.2188ZM13.4907 34.9173L13.4906 30.5535L15.299 30.4028L15.2991 35.068L13.4907 34.9173ZM9.87391 30.8549L11.6823 30.7042L11.6823 34.7667L9.87391 34.616L9.87391 30.8549ZM7.1614 36.352C6.9219 36.352 6.69539 36.2574 6.5236 36.0856C6.35181 35.9139 6.25725 35.6873 6.25725 35.4478L6.25725 30.0228C6.25719 29.5243 6.66284 29.1187 7.1614 29.1187C7.4009 29.1187 7.62741 29.2132 7.7992 29.385C7.97099 29.5568 8.06555 29.7833 8.06555 30.0228L8.06549 35.4478C8.06555 35.6873 7.97093 35.9138 7.79914 36.0856C7.62735 36.2575 7.40096 36.3521 7.1614 36.352ZM21.6283 37.2561C21.1298 37.2562 20.7242 36.8505 20.7242 36.3521L20.7242 29.1188C20.7241 28.8792 20.8187 28.6528 20.9904 28.481C21.1622 28.3093 21.3888 28.2147 21.6283 28.2147C21.8677 28.2147 22.0943 28.3093 22.2661 28.481C22.4378 28.6528 22.5323 28.8793 22.5323 29.1188L22.5324 36.3521C22.5325 36.5916 22.4378 36.8181 22.2661 36.9898C22.0944 37.1615 21.8679 37.2562 21.6283 37.2561Z" fill="#FFE70E"/>
<path d="M47.4595 30.0272C47.8125 30.3803 48.3851 30.3803 48.7382 30.0272C49.0912 29.6742 49.0912 29.1015 48.7382 28.7485L48.7377 28.748C48.3846 28.3949 47.8123 28.3952 47.4592 28.7482C47.1062 29.1013 47.1064 29.6742 47.4595 30.0272Z" fill="#FFE70E"/>
</svg>
