<svg width="58" height="58" viewBox="0 0 58 58" fill="none" xmlns="http://www.w3.org/2000/svg">
<path d="M54.9386 26.9571C55.2857 26.6213 55.4811 26.1714 55.4891 25.6903L55.5186 23.8885C55.535 22.8934 54.7388 22.0704 53.7434 22.0538L51.932 22.0241L51.9439 21.3023C51.9521 20.8031 51.5541 20.3918 51.0546 20.3834C50.5553 20.3752 50.1439 20.7733 50.1357 21.2726L50.1238 21.9944L44.7486 21.906C44.2494 21.8978 43.8379 22.2959 43.8297 22.7953C43.8215 23.2946 44.2195 23.7059 44.7189 23.7142L53.7105 23.8589L53.6841 25.6574L28.4629 25.2428L28.4924 23.4475L36.5824 23.5805C37.0816 23.5887 37.4931 23.1906 37.5014 22.6913C37.5095 22.1921 37.1114 21.7806 36.6121 21.7723L27.618 21.6244L16.8075 21.4467C16.8074 21.4467 16.8071 21.4467 16.807 21.4467C16.5677 21.4426 16.3429 21.3444 16.1742 21.17C16.0052 20.9954 15.9144 20.7674 15.9184 20.5279C15.9223 20.2884 16.0206 20.0635 16.1952 19.8946C16.3697 19.7256 16.5978 19.6348 16.8373 19.6387C17.3365 19.6469 17.748 19.2488 17.7562 18.7495C17.7644 18.2501 17.3664 17.8388 16.867 17.8305C16.1445 17.8187 15.4593 18.0901 14.9376 18.5949C14.4159 19.0997 14.1221 19.7756 14.1103 20.4981C14.1036 20.9065 14.1876 21.3031 14.3531 21.665C9.04756 22.7078 4.99291 27.3495 4.90049 32.9687L4.84134 36.5721C4.83316 37.0697 5.0282 37.5242 5.34962 37.8563C5.67104 38.1885 6.11903 38.3984 6.61656 38.4065L12.0222 38.4954C13.0173 38.5117 13.8402 37.7154 13.8567 36.7202L13.9159 33.117C13.9355 31.9206 14.4239 30.7996 15.291 29.9605C15.9357 29.3367 16.7292 28.9278 17.5854 28.7668L17.56 30.312C17.5421 31.4016 17.9689 32.3967 18.6729 33.124C19.3766 33.8512 20.3575 34.3108 21.4469 34.3288L25.6847 34.3984C27.1766 34.423 28.4104 33.2291 28.4349 31.7371L28.4527 30.6556L47.0358 30.961C48.5278 30.9855 49.7616 29.7917 49.7861 28.2996L49.8009 27.4018L53.6543 27.4652C54.1355 27.4734 54.5916 27.2929 54.9386 26.9571ZM39.1881 29.0237L39.2176 27.2282L41.0132 27.2577L40.9836 29.0532L39.1881 29.0237ZM35.5846 28.9644L35.614 27.1689L37.4094 27.1985L37.3799 28.994L35.5846 28.9644ZM31.981 28.9053L32.0106 27.1098L33.806 27.1393L33.7765 28.9348L31.981 28.9053ZM27.5783 28.8329C27.3569 28.8292 27.1556 28.7449 27.0011 28.6089C27.2905 28.4931 27.5414 28.328 27.7513 28.1131C28.0253 27.8329 28.2189 27.4766 28.3316 27.0492L30.2023 27.0799L30.1728 28.8754L27.5783 28.8329ZM19.4248 26.8967L19.4839 23.2995L26.6843 23.4178L26.6399 26.1172C26.6341 26.4754 26.5694 26.7354 26.458 26.8493C26.3216 26.9891 25.9911 27.0049 25.8062 27.0017L19.4248 26.8967ZM12.1078 33.0875L12.0519 36.6875L6.64955 36.602L6.70877 32.9986C6.79854 27.5362 11.3156 23.1652 16.778 23.255L17.6759 23.2698L17.6157 26.9321C16.275 27.1025 15.0273 27.6997 14.0337 28.6612C12.8192 29.8362 12.1354 31.4082 12.1078 33.0875ZM25.7145 32.5906L21.4767 32.5208C20.2947 32.5015 19.3488 31.524 19.3683 30.3419L19.3951 28.7048L21.2219 28.7349C21.3404 29.6232 21.6826 30.4781 22.219 31.2005C22.243 31.2328 22.2687 31.263 22.2959 31.2912C22.6068 31.6124 23.1153 31.6612 23.4839 31.3874C23.8849 31.0898 23.9686 30.5234 23.6709 30.1226C23.3717 29.7195 23.1643 29.2537 23.0602 28.7651L25.0284 28.7974C25.1583 29.1826 25.3722 29.5298 25.6493 29.8161C25.9264 30.1025 26.2665 30.3278 26.6471 30.4702L26.6267 31.7075C26.6187 32.2026 26.2094 32.5987 25.7145 32.5906ZM47.9779 28.2702C47.9698 28.7652 47.5605 29.1613 47.0654 29.1531L42.7918 29.083L42.8213 27.2874L47.9927 27.3724L47.9779 28.2702Z" fill="#FFE70E"/>
<path d="M40.015 23.372C40.186 23.5487 40.428 23.6554 40.6931 23.6472L40.6937 23.6472C41.1928 23.6317 41.5845 23.2144 41.569 22.7153C41.5533 22.2162 41.1359 21.8241 40.6367 21.8397C40.1377 21.8552 39.7456 22.2725 39.7612 22.7716C39.7685 23.0056 39.8641 23.216 40.015 23.372Z" fill="#FFE70E"/>
</svg>
