<svg width="65" height="64" viewBox="0 0 65 64" fill="none" xmlns="http://www.w3.org/2000/svg">
<path d="M63.5944 30.3303C63.5833 29.8311 63.1698 29.4354 62.6706 29.4461L62.3395 29.4534L62.3255 28.8191C62.3147 28.3199 61.9009 27.924 61.4016 27.935C60.9024 27.946 60.5066 28.3595 60.5176 28.8589L60.5315 29.493L52.2301 29.6751L52.2185 29.1435C52.179 27.3493 50.6874 25.9214 48.8929 25.9606L38.8072 26.1817L37.122 25.1299C36.9725 25.0367 36.7991 24.9891 36.623 24.9931L22.8091 25.3031C22.5759 25.3083 22.3538 25.4035 22.1891 25.5687L20.0847 27.6795L16.4431 29.0984L15.4571 28.1547C15.2585 27.9647 14.9843 27.8753 14.7119 27.9117L4.90105 29.2252C4.64498 29.2595 4.4157 29.4017 4.27126 29.6159C4.12683 29.8301 4.08099 30.096 4.14525 30.3464L6.29674 38.7201C6.33924 38.8852 6.42684 39.033 6.54729 39.1483C6.61431 39.2124 6.6916 39.2666 6.77686 39.308C7.01532 39.4241 7.29286 39.4297 7.53583 39.323L10.5012 38.0222C10.9585 37.8216 11.1666 37.2883 10.966 36.831C10.7653 36.3737 10.2321 36.1658 9.77475 36.3662L7.78368 37.2397L6.15034 30.8825L14.521 29.7619L15.6092 30.8033C15.8632 31.0465 16.2351 31.1202 16.5626 30.9926L19.7149 29.7644L19.7636 31.9847L17.2287 33.0967C16.7714 33.2974 16.5633 33.8306 16.7639 34.288C16.8133 34.4004 16.8828 34.498 16.9663 34.5779C17.2223 34.823 17.6103 34.9041 17.9551 34.7528L19.8656 33.9149C19.9132 34.0325 19.9845 34.1401 20.0778 34.2294C20.0814 34.2328 20.0849 34.2362 20.0885 34.2395C20.2683 34.4059 20.5078 34.4924 20.7524 34.479L21.4728 34.4396C21.4865 34.9074 21.4686 35.3756 21.4179 35.8386C21.271 37.1818 20.8675 38.4623 20.219 39.6447C20.1036 39.8552 20.0765 40.103 20.144 40.3335C20.1888 40.4869 20.2731 40.6241 20.3866 40.7327C20.4436 40.7873 20.508 40.8347 20.5785 40.8731L23.7775 42.6193C24.2152 42.8582 24.7637 42.6976 25.0036 42.2604C25.9989 40.4455 26.6177 38.4831 26.8425 36.4277C26.9255 35.6694 26.9526 34.9036 26.9249 34.1413L30.0974 33.9678C30.6558 37.7912 32.4802 41.2777 35.2252 43.9049C36.3021 44.9355 37.521 45.8341 38.8603 46.5686C39.0708 46.684 39.3187 46.7111 39.5491 46.6436C39.7795 46.5762 39.9737 46.4199 40.0887 46.2091L42.4898 41.8105C42.7287 41.3729 42.568 40.8242 42.131 40.5846C39.4657 39.1226 37.5837 36.5495 36.9733 33.5916L37.7562 33.5488C38.1834 33.5254 38.5357 33.2058 38.6006 32.7829L38.6136 32.6977L50.4713 32.4377C51.145 32.4229 51.7248 32.041 52.0272 31.4883L62.7104 31.2541C63.2094 31.2432 63.6053 30.8296 63.5944 30.3303ZM36.3936 26.8072L37.5734 27.5435L36.924 31.7834L21.5863 32.6223L21.5445 30.7147L30.8383 30.5109C31.0781 30.5056 31.3059 30.4054 31.4717 30.2322C31.6375 30.0589 31.7277 29.8268 31.7225 29.5871L31.6638 26.9133L36.3936 26.8072ZM23.2131 27.1029L29.8559 26.9539L29.8947 28.7228L21.5048 28.9067L21.5029 28.8184L23.2131 27.1029ZM25.0447 36.2311C24.8786 37.7493 24.4696 39.2103 23.8263 40.5858L22.2104 39.7038C22.7383 38.5438 23.0754 37.3136 23.2154 36.0353C23.2768 35.4744 23.2972 34.9072 23.2785 34.3409L25.1186 34.2403C25.141 34.9039 25.1169 35.5707 25.0447 36.2311ZM40.4861 41.7066L38.9481 44.5243C35.1688 42.1544 32.602 38.268 31.9114 33.8687L35.1502 33.6915C35.753 36.9805 37.6915 39.889 40.4861 41.7066ZM39.3361 27.9791L42.2476 27.9153L42.311 30.8079L38.8913 30.8829L39.3361 27.9791ZM50.4314 30.6298L44.119 30.7682L44.0556 27.8756L48.9326 27.7687C49.7302 27.7512 50.3931 28.3859 50.4106 29.1833L50.4421 30.6187C50.4423 30.6226 50.4354 30.6298 50.4314 30.6298Z" fill="#FFE70E"/>
<path d="M14.4912 34.9067L14.4906 34.9062C14.1299 34.561 13.5577 34.5738 13.2125 34.9345C12.8673 35.2952 12.88 35.8678 13.2408 36.2131C13.6016 36.5584 14.174 36.5458 14.5192 36.1851C14.8644 35.8244 14.8519 35.2519 14.4912 34.9067Z" fill="#FFE70E"/>
</svg>
