<svg width="65" height="65" viewBox="0 0 65 65" fill="none" xmlns="http://www.w3.org/2000/svg">
<path d="M54.6449 41.4461L52.2018 33.2477C52.4931 33.1059 52.7602 32.9115 52.99 32.6685C53.4894 32.1406 53.7533 31.4517 53.7331 30.729L53.7079 29.8229C53.7079 29.8228 53.7079 29.8227 53.7079 29.8227L60.9497 29.6212C61.4489 29.6073 61.8424 29.1914 61.8285 28.6921C61.8146 28.193 61.3986 27.7996 60.8994 27.8133L59.0427 27.865L59.0236 27.1795C59.0097 26.6802 58.5937 26.2868 58.0945 26.3007C57.5954 26.3145 57.2019 26.7305 57.2158 27.2297L57.2349 27.9152L40.802 28.3725L39.1958 26.1027C38.6189 25.2872 37.7871 24.8334 36.914 24.8576L25.7297 25.1688L25.7046 24.2649C25.6909 23.7657 25.2749 23.3723 24.7756 23.3862C24.2764 23.4 23.8829 23.8159 23.8969 24.3152L23.9219 25.2191L21.2113 25.2946C20.2139 25.3223 19.4249 26.1564 19.4527 27.1539L19.5031 28.9651L4.90996 29.3712C4.31926 29.3877 3.77281 29.6566 3.4107 30.1089C3.0437 30.5673 2.89862 31.1649 3.0126 31.7484L3.99773 36.7902C4.08745 37.2493 4.3035 37.6392 4.60083 37.9205C4.9335 38.2351 5.36799 38.4137 5.84058 38.4006L12.3999 38.2181C13.2101 38.1954 13.9545 37.7252 14.3424 36.9905L15.6551 34.5043L19.0954 34.4086L18.0045 36.7519C17.7938 37.2046 17.9898 37.7424 18.4427 37.9533C18.8954 38.1641 19.4333 37.9679 19.6441 37.5152L21.1165 34.3524L30.0056 34.1051L30.1585 39.599C30.1718 40.0811 30.3729 40.5299 30.7246 40.8625C31.0763 41.1952 31.5355 41.371 32.0176 41.3575L34.5518 41.287C35.5492 41.2593 36.3383 40.4253 36.3106 39.4278L36.1577 33.9339L49.9168 33.5511L48.8943 37.8417C48.8167 38.1676 48.9259 38.4942 49.153 38.709C49.2644 38.8144 49.4043 38.8928 49.5642 38.9309C50.05 39.0467 50.5377 38.7468 50.6534 38.261L51.1668 36.1069L52.9118 41.9626C53.0545 42.4413 53.5582 42.7136 54.0366 42.571C54.5152 42.4283 54.7876 41.9248 54.6449 41.4461ZM51.9254 30.7792C51.9321 31.0191 51.8435 31.2487 51.6761 31.4257C51.5088 31.6026 51.2847 31.7038 51.0448 31.7105C51.0447 31.7105 51.0445 31.7105 51.0445 31.7104C51.0442 31.7104 51.044 31.7105 51.0437 31.7105L41.3228 31.981L41.2724 30.1686L51.9003 29.8729L51.9254 30.7792ZM15.0771 32.7113C14.7509 32.7205 14.455 32.9045 14.3027 33.193L12.7433 36.1462C12.6584 36.307 12.5112 36.4058 12.3497 36.4103L5.82882 36.5918C5.81199 36.5664 5.78716 36.5178 5.77269 36.4435L4.78755 31.4017C4.7707 31.3155 4.80642 31.2593 4.82256 31.2391C4.85396 31.1998 4.89776 31.1807 4.96027 31.179L19.5532 30.7729C19.5532 30.7729 19.5532 30.7729 19.5532 30.7729L19.6036 32.5853L15.0771 32.7113ZM34.5017 39.4792L31.9664 39.5487L31.8136 34.0548L34.3495 33.9843L34.5017 39.4792ZM33.2037 29.4886C33.2176 29.9878 33.6336 30.3812 34.1328 30.3674L34.2492 30.3641L34.2994 32.1765L25.9312 32.4094L25.8808 30.5971L25.9978 30.5939C26.497 30.58 26.8905 30.164 26.8766 29.6648C26.8628 29.1655 26.4468 28.7721 25.9475 28.786L24.9267 28.8144C24.4275 28.8283 24.0341 29.2442 24.0479 29.7435L24.1235 32.4597L21.4118 32.5352L21.2617 27.1025L36.9642 26.6655C37.1484 26.6604 37.3473 26.7534 37.5259 26.9224C37.594 26.9868 37.6591 27.0621 37.7194 27.1473L39.447 29.5887L39.5149 32.0312C39.5149 32.0312 39.5149 32.0312 39.5149 32.0313L36.1074 32.1261L36.0319 29.4098C36.0179 28.9106 35.602 28.5172 35.1028 28.531L34.0824 28.5594C33.5832 28.5734 33.1897 28.9893 33.2037 29.4886Z" fill="#FFE70E"/>
<path d="M30.6621 28.9204L30.6616 28.9199C30.2988 28.5768 29.7268 28.5929 29.3836 28.9558C29.0404 29.3186 29.0565 29.8911 29.4194 30.2342C29.7822 30.5774 30.3545 30.5615 30.6977 30.1987C31.0408 29.8358 31.0248 29.2635 30.6621 28.9204Z" fill="#FFE70E"/>
</svg>
