<svg width="24" height="41" viewBox="0 0 24 41" fill="none" xmlns="http://www.w3.org/2000/svg">
<path d="M22.0105 22.6252C22.2032 22.2843 22.3133 21.8906 22.3133 21.4719C22.3133 19.9523 21.3682 18.6494 20.0349 18.12C20.1892 17.8073 20.2759 17.4553 20.2759 17.0837C20.2759 15.6427 19.426 14.3965 18.2011 13.82C18.2255 13.7103 18.2385 13.5961 18.2385 13.479V11.1282C18.2385 10.264 17.5354 9.56091 16.6712 9.56091H15.7113V4.85902C15.7113 3.56275 14.6567 2.50816 13.3604 2.50816H11.0555C10.35 1.02688 8.83853 0.000488281 7.09152 0.000488281C6.28392 0.000488281 5.4927 0.223115 4.80334 0.64439C4.4341 0.870073 4.31765 1.35239 4.54326 1.72171C4.76902 2.09103 5.25134 2.2074 5.62058 1.9818C6.06372 1.7109 6.57237 1.56773 7.09152 1.56773C7.92514 1.56773 8.67514 1.93141 9.19202 2.50816H8.65868C7.36242 2.50816 6.30782 3.56275 6.30782 4.85902V6.42626C6.30782 6.67013 6.34614 6.90506 6.41533 7.12643C6.13597 7.05763 5.86758 6.94792 5.62066 6.7966C5.25158 6.57053 4.7691 6.68643 4.5431 7.05551C4.31703 7.4246 4.43293 7.907 4.80201 8.13307C5.48987 8.55442 6.28157 8.77713 7.09144 8.77713C7.35905 8.77713 7.62062 8.75174 7.87506 8.70566V9.56083H6.91513C6.05095 9.56083 5.34788 10.2639 5.34788 11.1281V13.4789C5.34788 13.596 5.36081 13.7101 5.38526 13.8199C4.16046 14.3964 3.31047 15.6426 3.31047 17.0836C3.31047 17.4553 3.39713 17.8071 3.55143 18.1199C2.2181 18.6494 1.27305 19.9523 1.27305 21.4719C1.27305 21.8906 1.38315 22.2843 1.57584 22.6252C0.922927 23.0434 0.489349 23.7751 0.489349 24.6064V25.8602C0.489349 26.6914 0.922927 27.4232 1.57584 27.8413C1.38307 28.1823 1.27297 28.5758 1.27297 28.9946C1.27297 30.5142 2.2181 31.8172 3.55135 32.3465C3.39714 32.6593 3.31039 33.0112 3.31039 33.3829C3.31039 34.8239 4.1603 36.07 5.38518 36.6466C5.36073 36.7563 5.3478 36.8704 5.3478 36.9875V38.5548C5.3478 39.4189 6.05087 40.122 6.91505 40.122H16.6711C17.5353 40.122 18.2384 39.4189 18.2384 38.5548V36.9875C18.2384 36.8704 18.2255 36.7563 18.201 36.6465C19.4259 36.07 20.2758 34.8238 20.2758 33.3829C20.2758 33.0112 20.1891 32.6593 20.0348 32.3465C21.3682 31.8171 22.3132 30.5142 22.3132 28.9946C22.3132 28.5758 22.2031 28.1822 22.0104 27.8412C22.6633 27.4231 23.0969 26.6914 23.0969 25.8601V24.6063C23.097 23.7752 22.6634 23.0434 22.0105 22.6252ZM20.746 21.4719C20.746 21.904 20.3945 22.2555 19.9624 22.2555H16.5348C16.5784 22.0151 16.6021 21.753 16.6021 21.4719C16.6021 20.7703 16.5022 20.0473 16.295 19.4345H18.7086C19.832 19.4345 20.746 20.3485 20.746 21.4719ZM15.3588 24.6064V25.8602C15.3588 26.2224 15.295 26.4931 15.2381 26.6438H8.34845C8.29148 26.4932 8.22769 26.2224 8.22769 25.8602V24.6064C8.22769 24.2442 8.29148 23.9734 8.34845 23.8227H15.2381C15.295 23.9734 15.3588 24.2442 15.3588 24.6064ZM15.0348 28.9946C15.0348 30.1071 14.7391 30.841 14.5599 31.0321H9.02644C8.8473 30.8411 8.55156 30.1071 8.55156 28.9946C8.55156 28.6318 8.61551 28.3616 8.67255 28.211H14.9136C14.9708 28.3616 15.0348 28.6318 15.0348 28.9946ZM14.1925 33.3829C14.1925 34.497 13.896 35.2306 13.717 35.4203H9.86946C9.6904 35.2306 9.39396 34.497 9.39396 33.3829C9.39396 33.02 9.45798 32.7498 9.51503 32.5993H14.0716C14.1285 32.7498 14.1925 33.0201 14.1925 33.3829ZM8.55164 21.4719C8.55164 20.3595 8.84738 19.6255 9.02652 19.4345H14.56C14.7391 19.6254 15.0349 20.3595 15.0349 21.4719C15.0349 21.8347 14.9708 22.105 14.9138 22.2555H8.67271C8.61566 22.105 8.55164 21.8348 8.55164 21.4719ZM9.39396 17.0836C9.39396 15.9695 9.6904 15.2359 9.86946 15.0462H13.717C13.8961 15.2359 14.1925 15.9695 14.1925 17.0836C14.1925 17.4464 14.1286 17.7167 14.0716 17.8672H9.51503C9.4579 17.7168 9.39396 17.4465 9.39396 17.0836ZM18.7086 17.0837C18.7086 17.5158 18.3571 17.8673 17.925 17.8673H15.6929C15.7365 17.627 15.7597 17.3647 15.7597 17.0837C15.7597 16.3821 15.66 15.6591 15.4528 15.0463H16.6711C17.7946 15.0463 18.7086 15.9603 18.7086 17.0837ZM7.87514 4.85902C7.87514 4.42693 8.22667 4.0754 8.65876 4.0754H9.89477C9.90621 4.17837 9.91256 4.28282 9.91256 4.38885C9.91256 5.57541 9.17587 6.59247 8.13617 7.00857C7.97639 6.86501 7.87514 6.65751 7.87514 6.42634V4.85902ZM9.44238 8.09146C10.6659 7.31184 11.4798 5.94402 11.4798 4.38877C11.4798 4.28329 11.4747 4.17899 11.4673 4.07532H13.3604C13.7925 4.07532 14.144 4.42685 14.144 4.85894V9.56075H9.44238V8.09146ZM16.6712 11.1281V13.4789H6.91521V11.1281H16.6712ZM6.91521 15.0463H8.13366C7.92647 15.6591 7.82671 16.3821 7.82671 17.0837C7.82671 17.3647 7.84991 17.627 7.89348 17.8673H5.66141C5.22932 17.8673 4.87779 17.5158 4.87779 17.0837C4.87779 15.9603 5.7918 15.0463 6.91521 15.0463ZM4.87779 19.4345H7.2915C7.08431 20.0473 6.9844 20.7703 6.9844 21.4719C6.9844 21.753 7.00799 22.0151 7.05163 22.2555H3.62391C3.19183 22.2555 2.84029 21.904 2.84029 21.4719C2.84037 20.3485 3.75439 19.4345 4.87779 19.4345ZM2.05675 25.8602V24.6064C2.05675 24.1743 2.40828 23.8227 2.84037 23.8227H6.72753C6.68388 24.0631 6.66045 24.3252 6.66045 24.6064V25.8602C6.66045 26.1412 6.68396 26.4034 6.72753 26.6438H2.84037C2.40828 26.6438 2.05675 26.2923 2.05675 25.8602ZM2.84037 28.9946C2.84037 28.5626 3.1919 28.211 3.62399 28.211H7.05171C7.00806 28.4514 6.98448 28.7135 6.98448 28.9946C6.98448 29.6962 7.08439 30.4193 7.2915 31.0321H4.87779C3.75439 31.0321 2.84037 30.1181 2.84037 28.9946ZM4.87779 33.3829C4.87779 32.9508 5.22932 32.5993 5.66141 32.5993H7.89348C7.84991 32.8396 7.82671 33.1019 7.82671 33.3829C7.82671 34.0845 7.92647 34.8076 8.13366 35.4203H6.91521C5.7918 35.4203 4.87779 34.5063 4.87779 33.3829ZM16.6712 38.5548H6.91521V36.9876H16.6713V38.5548H16.6712ZM16.6712 35.4203H15.4528C15.66 34.8076 15.7598 34.0845 15.7598 33.3829C15.7598 33.1019 15.7366 32.8396 15.693 32.5993H17.9251C18.3572 32.5993 18.7087 32.9508 18.7087 33.3829C18.7086 34.5063 17.7946 35.4203 16.6712 35.4203ZM18.7086 31.0321H16.295C16.5022 30.4193 16.6021 29.6962 16.6021 28.9946C16.6021 28.7135 16.5785 28.4514 16.5349 28.211H19.9625C20.3946 28.211 20.7461 28.5626 20.7461 28.9946C20.7461 30.1181 19.832 31.0321 18.7086 31.0321ZM21.5298 25.8602C21.5298 26.2923 21.1782 26.6438 20.7461 26.6438H16.859C16.9026 26.4034 16.9261 26.1413 16.9261 25.8602V24.6064C16.9261 24.3253 16.9025 24.0632 16.859 23.8227H20.7461C21.1782 23.8227 21.5298 24.1743 21.5298 24.6064V25.8602Z" fill="#FFE70E"/>
<path d="M3.48738 5.17223C3.92018 5.17223 4.27101 4.8214 4.27101 4.38861C4.27101 3.95581 3.92018 3.60498 3.48738 3.60498H3.48683C3.05404 3.60498 2.70352 3.95581 2.70352 4.38861C2.70352 4.8214 3.05459 5.17223 3.48738 5.17223Z" fill="#FFE70E"/>
</svg>
