<svg width="67" height="67" viewBox="0 0 67 67" fill="none" xmlns="http://www.w3.org/2000/svg">
<path d="M60.7441 27.6393C60.3823 27.2776 59.8028 27.2707 59.4498 27.6237L57.5317 29.5418C57.1787 29.8948 57.1856 30.4744 57.5473 30.8361C57.909 31.1978 58.4885 31.2047 58.8416 30.8517L60.7597 28.9336C61.1127 28.5806 61.1058 28.001 60.7441 27.6393Z" fill="#FFE70E"/>
<path d="M54.0192 28.8063C54.0223 29.059 54.1274 29.289 54.295 29.4566C54.4626 29.6242 54.6927 29.7294 54.9454 29.7325C55.4508 29.7386 55.8557 29.3337 55.8496 28.8282L55.8165 26.0826C55.8103 25.5772 55.3956 25.1625 54.8903 25.1564C54.3848 25.1503 53.98 25.5551 53.986 26.0606L54.0192 28.8063Z" fill="#FFE70E"/>
<path d="M55.9596 37.98C55.9534 37.4747 55.5387 37.06 55.0334 37.0538C54.5279 37.0477 54.1231 37.4526 54.1291 37.9581L54.1623 40.7037C54.1654 40.9564 54.2705 41.1865 54.4381 41.3541C54.6057 41.5217 54.8358 41.6269 55.0885 41.6299C55.5939 41.636 55.9988 41.2312 55.9927 40.7257L55.9596 37.98Z" fill="#FFE70E"/>
<path d="M60.8688 37.9938L58.9039 36.029C58.5422 35.6672 57.9627 35.6603 57.6096 36.0134C57.2566 36.3664 57.2635 36.9459 57.6252 37.3077L59.5901 39.2725C59.9518 39.6342 60.5313 39.6412 60.8844 39.2881C61.2374 38.9351 61.2305 38.3555 60.8688 37.9938Z" fill="#FFE70E"/>
<path d="M58.926 34.0877C59.0936 34.2553 59.3238 34.3605 59.5764 34.3636L62.322 34.3967C62.8275 34.4028 63.2323 33.998 63.2262 33.4924C63.22 32.9871 62.8053 32.5724 62.3 32.5662L59.5544 32.5331C59.0489 32.527 58.6441 32.9318 58.6502 33.4374C58.6533 33.6901 58.7584 33.9201 58.926 34.0877Z" fill="#FFE70E"/>
<path d="M55.6291 32.754C53.6295 30.7544 51.8122 31.8433 50.4853 32.6384C49.1126 33.4609 48.3549 33.8384 47.2598 32.9012L47.2205 29.6395C47.2021 28.1257 45.9557 26.8791 44.4417 26.8608L30.2563 26.6898C29.7509 26.6838 29.346 27.0886 29.3521 27.5941C29.3582 28.0994 29.7729 28.5141 30.2783 28.5204L35.3115 28.581L35.4217 37.733L17.1184 37.5124L17.0081 28.3604L22.0415 28.4211C22.5469 28.4271 22.9518 28.0223 22.9458 27.5168C22.9396 27.0115 22.5249 26.5968 22.0195 26.5905L7.83369 26.4197C7.10222 26.4109 6.41678 26.6887 5.90345 27.2021C5.39018 27.7154 5.11231 28.4009 5.12112 29.1323L5.2094 36.4539C5.21828 37.1852 5.51268 37.8777 6.03847 38.4035C6.56426 38.9293 7.25666 39.2237 7.98806 39.2325L44.5962 39.6736C46.1102 39.6919 47.327 38.475 47.3088 36.961L47.2855 35.025C48.9584 35.708 50.4114 34.8393 51.4537 34.2147C52.9086 33.343 53.4542 33.1365 54.3504 34.0327C54.7121 34.3944 55.2916 34.4013 55.6446 34.0483C55.9977 33.6952 55.9908 33.1157 55.6291 32.754ZM37.142 28.603L39.8878 28.6361L39.9981 37.7881L37.2524 37.755L37.142 28.603ZM15.288 37.4903L12.5423 37.4572L12.432 28.3053L15.1778 28.3384L15.288 37.4903ZM7.96594 37.4021C7.72353 37.3992 7.49309 37.3007 7.31717 37.1248C7.14125 36.9489 7.04271 36.7184 7.03979 36.4759L6.95151 29.1543C6.94853 28.9118 7.04154 28.6838 7.21327 28.512C7.38513 28.3402 7.61313 28.2472 7.85562 28.2502L10.6015 28.2833L10.7117 37.4352L7.96594 37.4021ZM44.5741 37.8432L41.8284 37.8101L41.7181 28.6581L44.4638 28.6911C44.9684 28.6973 45.384 29.1129 45.39 29.6174L45.4783 36.939C45.4844 37.4436 45.0788 37.8492 44.5741 37.8432Z" fill="#FFE70E"/>
<path d="M25.5098 28.1951C25.8716 28.5568 26.4511 28.5637 26.8041 28.2107C27.1572 27.8576 27.1503 27.2781 26.7885 26.9164L26.7881 26.9159C26.4264 26.5542 25.8471 26.5475 25.494 26.9006C25.141 27.2536 25.1481 27.8334 25.5098 28.1951Z" fill="#FFE70E"/>
</svg>
