<svg width="69" height="47" viewBox="0 0 69 47" fill="none" xmlns="http://www.w3.org/2000/svg">
<path d="M22.4547 16.6426H6.89533C6.64923 16.6426 6.41321 16.7403 6.23919 16.9144C6.06517 17.0884 5.96741 17.3244 5.96741 17.5705C5.96741 17.8166 6.06517 18.0526 6.23919 18.2266C6.41321 18.4007 6.64923 18.4984 6.89533 18.4984H22.4547C22.7008 18.4984 22.9368 18.4007 23.1109 18.2266C23.2849 18.0526 23.3826 17.8166 23.3826 17.5705C23.3826 17.3244 23.2849 17.0884 23.1109 16.9144C22.9368 16.7403 22.7008 16.6426 22.4547 16.6426Z" fill="#FFE70E"/>
<path d="M22.4547 10.7949H6.89533C6.64923 10.7949 6.41321 10.8927 6.23919 11.0667C6.06517 11.2407 5.96741 11.4767 5.96741 11.7228C5.96741 11.9689 6.06517 12.205 6.23919 12.379C6.41321 12.553 6.64923 12.6508 6.89533 12.6508H22.4547C22.7008 12.6508 22.9368 12.553 23.1109 12.379C23.2849 12.205 23.3826 11.9689 23.3826 11.7228C23.3826 11.4767 23.2849 11.2407 23.1109 11.0667C22.9368 10.8927 22.7008 10.7949 22.4547 10.7949Z" fill="#FFE70E"/>
<path d="M65.3722 5.6168C64.5332 5.61764 63.7288 5.95131 63.1355 6.54458C62.5423 7.13786 62.2086 7.94226 62.2078 8.78127V9.25849H49.8457V8.78127C49.8457 7.942 49.5123 7.13711 48.9189 6.54365C48.3254 5.9502 47.5205 5.6168 46.6812 5.6168C45.842 5.6168 45.0371 5.9502 44.4436 6.54365C43.8502 7.13711 43.5168 7.942 43.5168 8.78127V9.25849H28.6859V6.42011C28.6859 6.17401 28.5882 5.93799 28.4142 5.76397C28.2401 5.58995 28.0041 5.49219 27.758 5.49219H25.1148V3.67506C25.1147 3.50492 25.0679 3.33808 24.9795 3.19275C24.891 3.04743 24.7643 2.92923 24.6132 2.85106L19.3065 0.106536C19.1756 0.0379592 19.0301 0.00160466 18.8823 0.000488399H10.4711C10.3466 0.000425632 10.2234 0.0254151 10.1088 0.0739693C9.99425 0.122524 9.89059 0.193649 9.80406 0.283106L4.77155 5.49219H1.59382C1.47194 5.49212 1.35124 5.51608 1.23863 5.56268C1.12602 5.60929 1.0237 5.67764 0.93752 5.76382C0.851341 5.85 0.782993 5.95232 0.736386 6.06493C0.689778 6.17754 0.665824 6.29824 0.665894 6.42011V22.873C0.665824 22.9948 0.689778 23.1155 0.736386 23.2281C0.782993 23.3407 0.851341 23.4431 0.93752 23.5292C1.0237 23.6154 1.12602 23.6838 1.23863 23.7304C1.35124 23.777 1.47194 23.8009 1.59382 23.8009H9.71286V32.0286C9.35995 32.3264 9.03286 32.6535 8.7351 33.0064H1.59382C1.47194 33.0063 1.35124 33.0303 1.23863 33.0769C1.12602 33.1235 1.0237 33.1918 0.93752 33.278C0.851341 33.3642 0.782993 33.4665 0.736386 33.5791C0.689778 33.6917 0.665824 33.8124 0.665894 33.9343V42.4844C0.665824 42.6063 0.689778 42.727 0.736386 42.8396C0.782993 42.9522 0.851341 43.0546 0.93752 43.1407C1.0237 43.2269 1.12602 43.2953 1.23863 43.3419C1.35124 43.3885 1.47194 43.4124 1.59382 43.4124H8.7351C9.45556 44.2698 10.3464 44.9682 11.3511 45.463C12.3559 45.9579 13.4525 46.2385 14.5714 46.287C15.6903 46.3355 16.8071 46.1508 17.8509 45.7447C18.8946 45.3386 19.8426 44.72 20.6345 43.928C21.4264 43.1361 22.0451 42.1881 22.4512 41.1444C22.8573 40.1006 23.0419 38.9838 22.9934 37.8649C22.945 36.746 22.6644 35.6494 22.1695 34.6447C21.6747 33.6399 20.9763 32.7491 20.1188 32.0286V23.8009H27.758C28.0041 23.8009 28.2401 23.7031 28.4142 23.5291C28.5882 23.3551 28.6859 23.1191 28.6859 22.873V20.033H43.5168V20.6369C43.5168 21.4762 43.8502 22.2811 44.4436 22.8746C45.0371 23.468 45.842 23.8014 46.6812 23.8014C47.5205 23.8014 48.3254 23.468 48.9189 22.8746C49.5123 22.2811 49.8457 21.4762 49.8457 20.6369V20.033H62.2078V20.6369C62.2078 21.4762 62.5412 22.2811 63.1346 22.8746C63.7281 23.468 64.533 23.8014 65.3722 23.8014C66.2115 23.8014 67.0164 23.468 67.6099 22.8746C68.2033 22.2811 68.5367 21.4762 68.5367 20.6369V8.77969C68.5354 7.94095 68.2016 7.13695 67.6084 6.54402C67.0151 5.95109 66.211 5.61764 65.3722 5.6168ZM10.8635 1.85898H18.6548L23.2589 4.24029V5.49219H7.3517L10.8635 1.85898ZM6.87501 39.0564C6.97539 39.9196 7.20601 40.7625 7.55902 41.5565H2.52174V34.8622H7.55902C7.08885 35.9156 6.84067 37.0545 6.82994 38.208C6.8302 38.4914 6.84524 38.7746 6.87501 39.0564ZM21.1464 38.208C21.1445 39.8598 20.4874 41.4434 19.3195 42.6114C18.1515 43.7794 16.5679 44.4364 14.9161 44.4384C11.6138 44.3026 8.73139 41.9234 8.68579 38.208C8.69048 37.8237 8.72737 37.4404 8.79608 37.0622C8.89575 36.4995 9.07912 35.9549 9.3401 35.4466C9.85912 34.4103 10.6547 33.5378 11.6388 32.9256C12.6229 32.3134 13.7572 31.9853 14.9161 31.9777C17.8711 31.833 21.2482 34.7429 21.1464 38.208ZM11.5687 30.851V23.7988H18.263V30.851C17.2109 30.3765 16.07 30.1311 14.9158 30.1311C13.7617 30.1311 12.6208 30.3765 11.5687 30.851ZM26.8301 10.1885V21.945H2.52174V7.34803H26.8301V10.1885ZM43.5168 18.1771H28.6859V15.5731H43.5168V18.1771ZM43.5168 13.7173H28.6859V11.1165H43.5168V13.7173ZM47.9899 10.1885V20.6343C47.9899 20.9813 47.852 21.3142 47.6066 21.5596C47.3612 21.805 47.0283 21.9429 46.6812 21.9429C46.3342 21.9429 46.0013 21.805 45.7559 21.5596C45.5105 21.3142 45.3726 20.9813 45.3726 20.6343V8.77969C45.3726 8.43261 45.5105 8.09976 45.7559 7.85434C46.0013 7.60892 46.3342 7.47105 46.6812 7.47105C47.0283 7.47105 47.3612 7.60892 47.6066 7.85434C47.852 8.09976 47.9899 8.43261 47.9899 8.77969V10.1885ZM62.2078 18.1771H49.8457V15.5731H62.2078V18.1771ZM62.2078 13.7173H49.8457V11.1165H62.2078V13.7173ZM66.6809 20.6369C66.6809 20.984 66.543 21.3169 66.2976 21.5623C66.0522 21.8077 65.7193 21.9456 65.3722 21.9456C65.0252 21.9456 64.6923 21.8077 64.4469 21.5623C64.2015 21.3169 64.0636 20.984 64.0636 20.6369V8.77969C64.0636 8.43261 64.2015 8.09976 64.4469 7.85434C64.6923 7.60892 65.0252 7.47105 65.3722 7.47105C65.7193 7.47105 66.0522 7.60892 66.2976 7.85434C66.543 8.09976 66.6809 8.43261 66.6809 8.77969V20.6369Z" fill="#FFE70E"/>
<path d="M14.9157 34.3647C14.1554 34.3647 13.4122 34.5902 12.78 35.0126C12.1478 35.435 11.6551 36.0354 11.3641 36.7379C11.0732 37.4403 10.997 38.2133 11.1454 38.959C11.2937 39.7047 11.6598 40.3896 12.1975 40.9273C12.7351 41.4649 13.4201 41.831 14.1658 41.9794C14.9115 42.1277 15.6844 42.0516 16.3869 41.7606C17.0893 41.4696 17.6897 40.9769 18.1121 40.3447C18.5345 39.7126 18.76 38.9693 18.76 38.209C18.7589 37.1898 18.3535 36.2126 17.6328 35.4919C16.9121 34.7712 15.935 34.3659 14.9157 34.3647ZM14.9157 40.1974C14.5225 40.1974 14.138 40.0808 13.811 39.8623C13.4841 39.6438 13.2292 39.3332 13.0787 38.9699C12.9282 38.6066 12.8888 38.2068 12.9656 37.8211C13.0423 37.4354 13.2317 37.0811 13.5097 36.803C13.7878 36.5249 14.1421 36.3355 14.5278 36.2588C14.9135 36.1821 15.3133 36.2214 15.6767 36.3719C16.04 36.5224 16.3506 36.7773 16.569 37.1043C16.7875 37.4313 16.9041 37.8157 16.9041 38.209C16.9034 38.7361 16.6937 39.2415 16.321 39.6142C15.9482 39.987 15.4429 40.1967 14.9157 40.1974Z" fill="#FFE70E"/>
</svg>
