<svg width="62" height="62" viewBox="0 0 62 62" fill="none" xmlns="http://www.w3.org/2000/svg">
<path d="M59.6507 31.3804L59.712 27.714C59.7159 27.4742 59.6246 27.2427 59.4579 27.0703C59.2912 26.898 59.0627 26.7989 58.823 26.7949L55.1439 26.7335L55.1591 25.8294C55.1673 25.3301 54.7693 24.9186 54.2701 24.9102C53.7708 24.9018 53.3592 25.2999 53.3509 25.7992L53.3359 26.7034L38.7935 26.4603L38.8122 25.3363C38.8205 24.8371 38.4225 24.4255 37.9232 24.4171L37.9107 24.4169L37.9338 23.0283C37.9378 22.7886 37.8465 22.5571 37.6797 22.3846L35.6789 20.3159C35.5316 20.1635 35.3355 20.0678 35.1247 20.0453L21.9063 18.6384C21.4672 18.5916 21.0587 18.8687 20.9398 19.2938L19.592 24.1109L19.3617 24.1071C18.8624 24.0987 18.4508 24.4967 18.4424 24.9961L18.4271 25.9138L7.05998 25.724C6.56072 25.7157 6.14917 26.1137 6.14077 26.613L5.95132 37.9562C5.94727 38.1986 6.04049 38.4293 6.20543 38.5999C6.24936 38.6453 6.29843 38.6865 6.35218 38.7225C6.60721 38.8933 6.93142 38.9231 7.21327 38.8016L18.827 33.7957L19.528 35.053L15.0613 43.689C14.9471 43.9097 14.9289 44.1677 15.0108 44.4025C15.0927 44.6373 15.2675 44.8278 15.4944 44.9295L21.7056 47.7152C21.9494 47.8244 22.229 47.8204 22.4694 47.7041C22.7099 47.5877 22.8867 47.371 22.9522 47.1119L25.1326 38.4932L32.312 38.6133L32.1974 45.4775C32.1932 45.7272 32.2906 45.9549 32.4515 46.1212C32.6123 46.2875 32.8368 46.3925 33.0863 46.3967L37.5548 46.4714C37.7946 46.4753 38.0261 46.384 38.1985 46.2173C38.3709 46.0506 38.4699 45.8222 38.474 45.5824L38.6847 32.9674L38.702 31.9353L40.5603 31.9663L40.5148 34.6944C40.5108 34.935 40.6028 35.1663 40.7689 35.3381C40.7838 35.3535 40.7995 35.3686 40.8156 35.3831C41.0111 35.5582 41.2729 35.6397 41.5331 35.6065L54.2475 33.985C54.6933 33.9282 55.0297 33.5525 55.0373 33.1031L55.0522 32.2084L58.7313 32.2697C59.2308 32.2778 59.6423 31.8797 59.6507 31.3804ZM36.8918 32.0329L20.1383 31.7531L20.1718 29.7458L21.6915 29.7712C22.1907 29.7795 22.6023 29.3815 22.6107 28.8822C22.619 28.383 22.2209 27.9714 21.7217 27.963L20.202 27.9376L20.2356 25.9303L32.0564 26.1277L31.3357 28.1235L29.8581 28.0989C29.3588 28.0906 28.9473 28.4886 28.9389 28.9879C28.9348 29.2376 29.0322 29.4653 29.193 29.6316C29.3539 29.7979 29.5783 29.9029 29.8279 29.9071L31.9514 29.9425C32.3379 29.9489 32.6858 29.709 32.817 29.3455L33.9673 26.1597L36.9889 26.2102L36.8918 32.0329ZM25.351 36.6881L25.4016 33.6496L26.3375 33.6653L27.0565 36.7166L25.351 36.6881ZM22.4752 20.5175L34.6071 21.8088L36.1195 23.3726L36.1025 24.3866L21.4611 24.1421L22.4752 20.5175ZM7.78291 36.5868L7.93389 27.5471L18.397 27.7219L18.3249 32.0429L7.78291 36.5868ZM17.1069 43.6704L21.3576 35.4521C21.4969 35.1826 21.4919 34.8612 21.3442 34.5963L20.7731 33.5722L23.5934 33.6193L23.5294 37.4569L21.4631 45.6241L17.1069 43.6704ZM28.9218 36.7478L28.2028 33.6964L32.393 33.7664L32.3422 36.8049L28.9218 36.7478ZM34.0208 44.6034L34.2013 33.7965L36.8616 33.841L36.6811 44.6478L34.0208 44.6034ZM38.7323 30.1268L38.7633 28.2685L40.6218 28.2995L40.5907 30.1579L38.7323 30.1268ZM50.4457 32.6465L50.4619 31.6747C50.4702 31.1755 50.0722 30.764 49.5729 30.7555C49.0737 30.7471 48.6621 31.1452 48.6537 31.6445L48.6331 32.8776L46.944 33.093L46.961 32.0741C46.9693 31.5749 46.5712 31.1633 46.072 31.1549C45.5727 31.1465 45.1612 31.5445 45.1528 32.0439L45.1314 33.3242L42.3403 33.6801L42.4297 28.3296L53.3054 28.5112L53.2422 32.2898L50.4457 32.6465ZM55.0826 30.4L55.1136 28.5415L57.8887 28.5879L57.8577 30.4462L55.0826 30.4Z" fill="#FFE70E"/>
<path d="M25.9381 28.3074L25.9377 28.3069C25.5905 27.9479 25.0183 27.9387 24.6594 28.2858C24.3005 28.6329 24.2911 29.2056 24.6382 29.5645C24.9854 29.9235 25.5579 29.933 25.9167 29.5859C26.2756 29.2388 26.2853 28.6663 25.9381 28.3074Z" fill="#FFE70E"/>
</svg>
