<svg width="60" height="59" viewBox="0 0 60 59" fill="none" xmlns="http://www.w3.org/2000/svg">
<path d="M54.9489 29.5076L54.9489 26.7953C55.4481 26.7953 55.8529 26.3905 55.8529 25.8913L55.8529 23.1788C55.8529 22.1819 55.0419 21.3707 54.0448 21.3706L51.9687 21.3706L51.9687 20.7716C51.9687 20.2723 51.5639 19.8675 51.0646 19.8674C50.5653 19.8674 50.1605 20.2722 50.1604 20.7716L50.1604 21.3706L40.7768 21.3706C40.2775 21.3706 39.8727 21.7754 39.8727 22.2747C39.8727 22.774 40.2775 23.1788 40.7768 23.1789L54.0448 23.1788L54.0448 24.9872L48.6202 24.9871C47.4167 24.9871 46.2826 25.4585 45.4269 26.3142C44.571 27.1701 44.0998 28.3041 44.0998 29.5075L14.8524 29.5075L14.8524 27.6992C14.8523 26.4978 15.3242 25.3643 16.181 24.5075C17.0377 23.6507 18.1713 23.1788 19.3728 23.1789L20.0547 23.1789L20.0547 25.8913C20.0547 26.141 20.1559 26.367 20.3195 26.5306C20.4831 26.6942 20.7092 26.7954 20.9588 26.7954C21.4581 26.7955 21.8629 26.3907 21.8629 25.8913L21.8629 23.1789H23.6712L23.6712 25.8913C23.6713 26.1409 23.7724 26.367 23.936 26.5306C24.0996 26.6941 24.3257 26.7953 24.5753 26.7953C25.0746 26.7954 25.4794 26.3906 25.4794 25.8912L25.4794 23.1788H27.2877L27.2877 25.8912C27.2878 26.1408 27.3889 26.3669 27.5525 26.5305C27.7161 26.6941 27.9422 26.7953 28.1918 26.7953C28.6911 26.7953 29.0959 26.3905 29.096 25.8911L29.096 23.1788L32.6401 23.1788C33.1394 23.1788 33.5442 22.774 33.5443 22.2747C33.5443 21.7753 33.1395 21.3707 32.6401 21.3705L19.3729 21.3706C19.0508 21.3706 18.7324 21.3951 18.4195 21.4425C17.7245 20.3921 16.5445 19.7431 15.2517 19.7431C13.1557 19.7431 11.4506 21.4483 11.4506 23.5442C11.4506 24.5726 11.8635 25.5324 12.563 26.2319C12.7338 26.4026 12.9219 26.5577 13.125 26.6947C13.0724 27.0241 13.0442 27.3595 13.0442 27.6992L13.0443 29.5075C13.0442 29.9896 13.2326 30.4433 13.5746 30.7853C13.6797 30.8905 13.7965 30.9792 13.9204 31.0543C13.9767 32.9041 15.1541 33.5797 15.8854 33.9993C16.5914 34.4043 16.6503 34.4831 16.5844 34.9366L15.0313 45.6275C14.9242 46.365 15.1291 47.0961 15.5937 47.6329C15.6306 47.6756 15.6689 47.7167 15.7086 47.7564C16.1638 48.2116 16.7969 48.4697 17.4711 48.4697L22.8505 48.4697C24.2939 48.4696 25.5964 47.3379 25.8156 45.893L26.8801 38.8784C27.0342 37.8627 27.7281 37.5022 28.2754 37.5022C31.906 37.5021 34.0388 37.4604 35.6553 36.6026C37.4063 35.6735 38.2541 33.8865 38.9796 31.3156H45.004C45.5033 31.3156 45.908 30.9109 45.9081 30.4117L54.0449 30.4117C54.5441 30.4117 54.9489 30.0069 54.9489 29.5076ZM13.2588 23.5443C13.2588 22.4454 14.1527 21.5514 15.2517 21.5514C15.7415 21.5514 16.1998 21.7299 16.5542 22.0361C15.9518 22.3381 15.3939 22.7374 14.9024 23.2289C14.4236 23.7077 14.0324 24.2494 13.7332 24.8338C13.4335 24.4807 13.2588 24.0272 13.2588 23.5443ZM22.8504 46.6615L17.471 46.6615C17.2572 46.6615 17.0811 46.588 16.961 46.4499C16.8383 46.3081 16.7885 46.1083 16.8206 45.8873L18.3737 35.1964C18.6223 33.4846 17.5168 32.8504 16.7852 32.4307C16.2267 32.1103 15.8568 31.898 15.7538 31.3156L28.4083 31.3156L27.5143 35.7921C26.4126 36.0759 25.3388 36.9824 25.0922 38.6073L24.9676 39.4284L22.4525 39.4285C21.9532 39.4285 21.5484 39.8333 21.5483 40.3326C21.5484 40.5823 21.6495 40.8083 21.8131 40.9719C21.9767 41.1355 22.2028 41.2367 22.4524 41.2367L24.6932 41.2367L24.4187 43.0449L20.2713 43.0449C19.772 43.0449 19.3672 43.4497 19.3671 43.949C19.3672 44.1987 19.4683 44.4247 19.6319 44.5883C19.7955 44.7519 20.0216 44.8531 20.2712 44.8531L24.1443 44.8531L24.0276 45.6217C23.9437 46.1756 23.3936 46.6615 22.8504 46.6615ZM34.8076 35.0054C33.7131 35.5862 32.0589 35.6782 29.3782 35.6918L30.2522 31.3156L31.1672 31.3157C31.2942 32.1284 31.605 33.0144 32.0401 33.768C32.0807 33.8383 32.1292 33.9011 32.184 33.9559C32.4662 34.2382 32.913 34.3081 33.2751 34.099C33.7076 33.8494 33.8557 33.2965 33.6061 32.8641C33.3301 32.3859 33.1187 31.8316 33.005 31.3157L37.095 31.3157C36.4447 33.4498 35.7908 34.4838 34.8076 35.0054ZM46.0636 28.6035C46.1972 28.2286 46.4141 27.8841 46.7055 27.5928C47.2197 27.0785 47.8998 26.7953 48.6203 26.7953L53.1407 26.7953L53.1407 28.6035L46.0636 28.6035Z" fill="#FFE70E"/>
<path d="M36.0698 22.9142C36.4229 23.2672 36.9954 23.2672 37.3484 22.9142C37.7014 22.5611 37.7015 21.9887 37.3484 21.6356L37.348 21.6351C36.9949 21.282 36.4226 21.2824 36.0696 21.6354C35.7166 21.9884 35.7167 22.5611 36.0698 22.9142Z" fill="#FFE70E"/>
</svg>
