<svg width="63" height="63" viewBox="0 0 63 63" fill="none" xmlns="http://www.w3.org/2000/svg">
<path d="M47.0696 44.5807C43.6231 41.1343 42.7204 36.1255 42.4899 34.0741H49.9563C50.1246 34.074 50.2897 34.027 50.4328 33.9383L51.8799 33.0408L59.5653 33.0409C59.8051 33.0409 60.0351 32.9456 60.2047 32.7761C60.3742 32.6065 60.4695 32.3765 60.4695 32.1367L60.4694 28.0036C60.4694 27.7638 60.3742 27.5339 60.2046 27.3643C60.035 27.1947 59.8051 27.0995 59.5653 27.0995L55.9485 27.0995L55.9485 26.1953C55.9484 25.6959 55.5437 25.2912 55.0442 25.2911C54.5449 25.2911 54.14 25.6959 54.14 26.1953L54.14 27.0996L42.4134 27.0997L42.4134 26.6253C42.4133 24.973 41.205 23.819 39.475 23.8191L22.2653 23.8189C22.0255 23.8189 21.7955 23.9142 21.6259 24.0837L19.5595 26.1502C19.3899 26.3197 19.2946 26.5498 19.2946 26.7895V27.3776L17.0926 28.158L11.9326 26.8681C11.7835 26.8308 11.6275 26.8321 11.4792 26.8719L6.00231 28.3395C5.60693 28.4454 5.33214 28.8037 5.33214 29.2128L5.33214 37.5868C5.33214 37.8285 5.42868 38.0579 5.5969 38.2261C5.62938 38.2586 5.66448 38.2887 5.70201 38.3163C5.93441 38.4865 6.2342 38.5358 6.50906 38.4489L19.6444 34.2936L20.3522 36.2464L17.1316 43.9639C16.8169 44.718 16.8159 45.6143 17.1292 46.3029C17.2419 46.5508 17.3934 46.7696 17.5762 46.9524C17.8041 47.1802 18.0807 47.3526 18.392 47.4563L21.6003 48.5258C21.6175 48.5315 21.6347 48.5366 21.6522 48.5413C23.708 49.0922 24.5469 47.8209 24.8887 46.6574L26.8839 39.8665L32.6558 39.8665C32.825 39.8664 32.9909 39.8189 33.1346 39.7294L34.4787 38.8903C35.1073 42.0455 36.1832 44.3329 37.139 45.8634C38.7577 48.4554 40.4071 49.5382 40.4764 49.5829C40.7776 49.7774 41.1653 49.7755 41.4646 49.578L46.9279 45.9746C47.1547 45.8251 47.3022 45.5815 47.3296 45.3112C47.357 45.0408 47.2617 44.7728 47.0696 44.5807ZM58.6611 28.9078L58.6611 31.2324H55.9485L55.9485 28.9078H58.6611ZM54.14 31.2323L51.6223 31.2323C51.4539 31.2324 51.2888 31.2794 51.1457 31.3681L49.6986 32.2656L47.6149 32.2656L47.615 28.9078L54.14 28.9078L54.14 31.2323ZM45.8066 28.9079L45.8065 32.2657L42.4135 32.2657L42.4136 28.9079L45.8066 28.9079ZM36.3805 32.2656L37.5273 30.1978L40.605 30.1978L40.605 32.2657L36.3805 32.2656ZM22.6399 25.6273L31.7265 25.6273L30.3321 28.0423L29.7328 28.0423C29.2335 28.0423 28.8287 28.4471 28.8287 28.9464C28.8287 29.1962 28.9299 29.4222 29.0935 29.5858C29.2571 29.7494 29.4832 29.8505 29.7328 29.8506L30.8541 29.8507C31.1771 29.8507 31.4756 29.6784 31.6371 29.3986L33.8145 25.6272L39.4751 25.6272C39.8971 25.6273 40.6051 25.7566 40.6051 26.625L40.6051 28.3892L36.9948 28.3892C36.6662 28.3893 36.3634 28.5675 36.204 28.8549L34.3126 32.2656L21.103 32.2657L21.103 29.8507H21.5952C22.0945 29.8507 22.4993 29.4459 22.4993 28.9466C22.4993 28.4472 22.0944 28.0423 21.5951 28.0423L21.1029 28.0423L21.1029 27.1641L22.6398 25.6272L22.6399 25.6273ZM7.14055 36.3526L7.14055 29.9067L11.7211 28.6794L16.9185 29.9788C17.091 30.0219 17.2724 30.0133 17.4399 29.9539L19.2946 29.2965L19.2946 32.5077L7.14055 36.3526ZM22.1461 46.8016L18.964 45.7409C18.9034 45.7205 18.8337 45.6826 18.7753 45.5543C18.6685 45.3194 18.6788 44.9518 18.8005 44.6604L22.1569 36.6176C22.2441 36.4086 22.2497 36.1743 22.1725 35.9613L21.4884 34.0739L26.7013 34.0739L23.1538 46.1478C22.9156 46.9586 22.6838 46.9444 22.1461 46.8016ZM32.3968 38.0583L27.4154 38.0583L28.5831 34.0841C28.6842 35.0635 29.0643 35.9246 29.6483 36.5086C29.8238 36.6841 30.0176 36.8346 30.2276 36.9558C30.6601 37.2055 31.2131 37.0573 31.4628 36.6248C31.7125 36.1924 31.5641 35.6392 31.1319 35.3897C30.8227 35.211 30.5115 34.7505 30.4034 34.074L33.9531 34.074C33.9811 35.0942 34.0565 36.0523 34.168 36.9525L32.3968 38.0583ZM41.0111 47.7112C40.4765 47.2497 39.5395 46.3181 38.6111 44.8056C37.3751 42.7922 35.9145 39.3284 35.7624 34.0741L37.279 34.0741C37.3764 35.6917 37.775 39.1905 39.3992 42.4365C39.4439 42.5258 39.5014 42.6045 39.5683 42.6715C39.8361 42.9392 40.2552 43.0192 40.6124 42.8405C41.0589 42.617 41.2398 42.0738 41.0163 41.6273C39.5823 38.7614 39.1976 35.5876 39.0943 34.0741H40.6666C40.8634 36.0922 41.6812 41.1421 45.0426 45.0522L41.0111 47.7112Z" fill="#FFE70E"/>
<path d="M25.0244 29.5858C25.3774 29.9388 25.95 29.9389 26.3031 29.5858C26.6562 29.2327 26.6561 28.6601 26.3031 28.3071L26.3026 28.3066C25.9495 27.9535 25.3772 27.9537 25.0241 28.3068C24.671 28.6599 24.6713 29.2327 25.0244 29.5858Z" fill="#FFE70E"/>
</svg>
