<svg width="54" height="54" viewBox="0 0 54 54" fill="none" xmlns="http://www.w3.org/2000/svg">
<path d="M49.9728 23.6553C50.9854 23.6631 51.8029 22.8456 51.795 21.8331L51.7793 19.7975C51.7755 19.3081 51.5806 18.8457 51.2305 18.4957C50.8805 18.1456 50.4181 17.9507 49.9286 17.9469L48.6718 17.9372L48.6657 17.1602C48.6618 16.657 48.2507 16.2458 47.7474 16.2419C47.2441 16.2379 46.8393 16.6428 46.8431 17.1461L46.8492 17.923L33.2611 17.8177L33.261 17.8037C33.2572 17.3142 33.0623 16.8518 32.7123 16.5018C32.3622 16.1517 31.8998 15.9568 31.4104 15.953L29.9595 15.9418C29.4562 15.9379 29.0514 16.3427 29.0552 16.846C29.0591 17.3493 29.4703 17.7604 29.9736 17.7644L31.4245 17.7756C31.4312 17.7756 31.4386 17.783 31.4386 17.7897L31.453 19.654L24.0376 19.5965C23.5343 19.5926 23.1295 19.9975 23.1334 20.5007L23.1621 24.2015C23.164 24.4431 23.2618 24.6757 23.434 24.8479C23.6062 25.0201 23.8388 25.1179 24.0804 25.1198L31.4959 25.1773L31.5046 26.3011L31.5046 26.3017C31.5046 26.3017 31.5046 26.3021 31.5046 26.3023L31.5103 27.0417C31.5104 27.0483 31.503 27.0556 31.4965 27.0555L22.9847 26.9896C22.1272 26.9829 21.4256 27.3537 20.9157 27.7951L17.4491 23.6854C19.3526 22.4977 20.326 19.9598 20.3085 17.7034C20.3084 17.6978 20.3167 17.6895 20.3223 17.6896L21.7724 17.7008C22.2757 17.7047 22.6806 17.2999 22.6766 16.7966C22.6728 16.2935 22.2616 15.8822 21.7583 15.8783L20.3081 15.867C19.2956 15.8593 18.4781 16.6767 18.4859 17.6892C18.4872 17.8451 18.4815 18.0035 18.4703 18.163C17.717 17.6473 16.7696 17.3431 15.7808 17.3354C15.2775 17.3315 14.8727 17.7364 14.8765 18.2397C14.8785 18.4914 14.9822 18.7199 15.1484 18.8861C15.3146 19.0523 15.5432 19.1561 15.7948 19.158C16.7106 19.1651 17.5764 19.5735 17.9985 20.1855C17.6032 21.1368 16.9715 21.9435 16.1197 22.3169C15.1586 21.7508 13.8744 21.8663 13.0591 22.6671C10.1939 25.2936 6.27991 28.8915 6.3321 35.6236L6.34996 37.9366C6.35735 38.8814 6.72192 39.4567 7.04802 39.7828C7.06561 39.8004 7.08321 39.8174 7.10047 39.8335C7.55205 40.2551 8.18226 40.481 8.92307 40.4867L14.798 40.5323C15.6714 40.5391 16.2004 40.1724 16.4904 39.8636C16.9531 39.3709 17.1668 38.6663 17.1084 37.8257C16.8538 34.1644 17.206 32.9356 17.4386 32.5291C17.7792 31.9338 18.2257 31.7356 18.8435 31.9056C19.1028 31.977 19.3613 32.0051 19.6127 31.9916C19.9208 32.418 20.2335 32.7847 20.5468 33.098C22.2874 34.8386 24.0384 34.9553 25.0301 34.8317C26.8963 34.5992 28.5477 33.2464 29.1394 31.4656C29.4389 30.5644 29.4274 29.6675 29.1282 28.8594L31.5106 28.8779C32.4654 28.8853 33.2459 28.1588 33.3254 27.2269L36.8175 27.254C37.3208 27.2579 37.7256 26.8531 37.7218 26.3498C37.718 25.8465 37.3067 25.4354 36.8034 25.4314L33.3199 25.4044L33.3054 23.526L49.9728 23.6553ZM15.2903 37.9241C15.3158 38.291 15.2361 38.5165 15.1529 38.605C15.0863 38.6758 14.9622 38.7112 14.784 38.7098L8.90894 38.6642C8.64166 38.6622 8.43725 38.6075 8.33321 38.5104C8.2036 38.3888 8.1739 38.1389 8.17244 37.9508L8.15457 35.6377C8.10852 29.6967 11.5496 26.5423 14.3145 24.0076C14.324 23.9989 14.3333 23.99 14.3424 23.9809C14.6204 23.7029 15.0768 23.7416 15.3145 23.9596L20.04 29.5616C20.0192 29.6905 19.9491 29.8714 19.8063 30.0143C19.6163 30.2043 19.4368 30.1859 19.3016 30.1487C17.887 29.7596 16.5979 30.3041 15.8533 31.6055C15.2435 32.6714 15.0646 34.6792 15.2903 37.9241ZM27.4089 30.8669C27.0358 31.9899 25.9536 32.8765 24.7771 33.0231C23.5436 33.1768 22.3058 32.5154 21.2484 31.1555C21.6602 30.6686 21.8845 30.0394 21.8673 29.4476C21.9262 29.3748 22.0011 29.2912 22.0907 29.2087C22.3223 29.789 22.6186 30.2556 23.0051 30.6421C23.2538 30.8908 23.5397 31.1066 23.8693 31.2985C24.3072 31.5535 24.8633 31.4085 25.1116 30.9746C25.3598 30.5407 25.2062 29.9822 24.7683 29.7272C24.4104 29.5187 24.13 29.2768 23.8986 28.8188L27.042 28.8431C27.6606 29.5496 27.5883 30.3267 27.4089 30.8669ZM49.9428 19.7695C49.9494 19.7695 49.9568 19.7769 49.9568 19.7834L49.9726 21.8189C49.9726 21.8255 49.9653 21.8327 49.9588 21.8327L33.2913 21.7036L33.2753 19.6403L49.9428 19.7695ZM24.9774 23.3042L24.9628 21.426L31.4671 21.4764L31.4816 23.3547L24.9774 23.3042Z" fill="#FFE70E"/>
<path d="M25.2271 17.4603C25.3933 17.6264 25.6219 17.7301 25.8735 17.7322L25.8742 17.7322C26.3774 17.7361 26.7819 17.3313 26.778 16.8281C26.7741 16.3248 26.3626 15.9136 25.8593 15.9097C25.3561 15.9058 24.9513 16.3107 24.9552 16.8139C24.9572 17.0655 25.0609 17.2941 25.2271 17.4603Z" fill="#FFE70E"/>
</svg>
