<svg width="61" height="61" viewBox="0 0 61 61" fill="none" xmlns="http://www.w3.org/2000/svg">
<path d="M59.3108 28.2965L59.3108 26.5122C59.3107 25.5219 58.505 24.7158 57.5145 24.7158L56.0929 24.7158L56.0929 24.0182C56.0928 23.5189 55.6881 23.1142 55.1887 23.114C54.6894 23.114 54.2845 23.5189 54.2845 24.0182L54.2845 24.7158L46.165 24.7158C45.4606 24.0447 44.5442 23.6753 43.5729 23.6754L31.2349 23.6753L29.1633 22.3183C29.0158 22.2218 28.8435 22.1705 28.6673 22.1706L11.8487 22.179C11.6155 22.1792 11.3913 22.2694 11.2231 22.4309L8.43838 25.1042C8.26071 25.2748 8.16033 25.5103 8.16039 25.7565L8.16046 31.9941C8.16046 32.2341 8.25585 32.464 8.42527 32.6334C8.42873 32.6369 8.43224 32.6404 8.43582 32.6438C8.61184 32.8141 8.84942 32.9058 9.09422 32.8978L10.1722 32.8625C10.1871 33.5083 10.1529 34.1548 10.069 34.7922C9.85096 36.4482 9.31768 38.0202 8.48384 39.4644C8.36377 39.6723 8.33136 39.9195 8.39376 40.1513C8.43519 40.3057 8.51644 40.4447 8.62756 40.5559C8.68338 40.6117 8.74674 40.6605 8.81636 40.7004L12.6626 42.9107C13.095 43.1592 13.6468 43.0107 13.8961 42.5788C15.1429 40.4193 15.9399 38.0721 16.2651 35.6024C16.3934 34.6277 16.4448 33.6406 16.4207 32.658L20.6613 32.5192C20.8364 34.0385 21.1788 35.5366 21.6847 36.9823C21.731 37.1149 21.8051 37.2296 21.8982 37.3227C22.1361 37.5606 22.4979 37.6557 22.8368 37.5372C23.3082 37.3721 23.5565 36.8564 23.3916 36.3851C22.9463 35.1126 22.641 33.7956 22.4764 32.4598L26.8105 32.3179C27.4185 36.4123 29.7446 40.0731 33.1837 42.3552L31.0423 46.0817C29.6965 45.2165 28.4668 44.1856 27.3762 43.0066C27.0412 42.6404 26.4651 42.6177 26.0985 42.9569C25.7319 43.296 25.7096 43.868 26.0488 44.2347C26.2328 44.4336 26.4203 44.6285 26.6116 44.8198C27.8949 46.1032 29.3385 47.2112 30.912 48.1196C31.1199 48.2396 31.3671 48.2721 31.5989 48.2097C31.8308 48.1474 32.0284 47.9953 32.148 47.7871L35.1872 42.4985C35.4356 42.0661 35.2872 41.514 34.8553 41.2649C31.5349 39.3475 29.2531 36.023 28.6313 32.2584L29.8113 32.2197C30.2389 32.2056 30.5982 31.8938 30.6723 31.4724L30.7189 31.2068L45.3206 31.2069C45.8584 31.2068 46.3648 30.9966 46.7465 30.6149C46.9016 30.4597 47.0269 30.2832 47.1228 30.093L57.5143 30.093C58.5047 30.093 59.3106 29.2872 59.3108 28.2965ZM12.2131 23.9872L20.5762 23.983L20.5762 26.5296L9.96866 26.5296L9.96866 26.1418L12.2131 23.9872ZM9.96866 31.0599L9.96873 28.3379L21.4804 28.338C21.9797 28.338 22.3846 27.9332 22.3846 27.4338L22.3846 23.9821L28.3982 23.979L29.9715 25.0095L29.0182 30.4362L9.96866 31.0599ZM14.4721 35.3664C14.2175 37.3005 13.6427 39.1516 12.7608 40.8814L10.4785 39.5698C11.1877 38.1437 11.6521 36.6198 11.8618 35.0282C11.9585 34.2932 11.9978 33.5478 11.9797 32.8034L14.6134 32.7172C14.6343 33.6012 14.5876 34.4893 14.4721 35.3664ZM31.7243 25.4837L35.6304 25.4837L35.6304 29.3983H31.0366L31.7243 25.4837ZM45.3204 29.3984L37.4388 29.3984L37.4388 25.4838L43.5729 25.4838C44.0925 25.4838 44.5832 25.6882 44.9544 26.0594C45.3257 26.4307 45.5302 26.9213 45.5301 27.4411L45.5302 29.189C45.5302 29.2591 45.4964 29.3076 45.4679 29.336C45.4446 29.3592 45.3943 29.3984 45.3204 29.3984ZM47.3385 28.2844L47.3384 27.4409C47.3384 27.1279 47.3002 26.8206 47.2259 26.5242L57.5023 26.5242L57.5024 28.2846L47.3385 28.2844Z" fill="#FFE70E"/>
<path d="M24.9076 39.7279L24.9071 39.7275C24.5541 39.3744 23.9817 39.3747 23.6287 39.7277C23.2756 40.0808 23.2757 40.6535 23.6288 41.0066C23.982 41.3597 24.5545 41.3597 24.9076 41.0066C25.2606 40.6536 25.2607 40.081 24.9076 39.7279Z" fill="#FFE70E"/>
</svg>
