<svg width="81" height="25" viewBox="0 0 81 25" fill="none" xmlns="http://www.w3.org/2000/svg">
<path d="M40.5 0L43.3064 8.63729H52.3882L45.0409 13.9754L47.8473 22.6127L40.5 17.2746L33.1527 22.6127L35.9591 13.9754L28.6118 8.63729H37.6936L40.5 0Z" fill="#FFE70E"/>
<path d="M12.5 0L15.3064 8.63729H24.3882L17.0409 13.9754L19.8473 22.6127L12.5 17.2746L5.15268 22.6127L7.95911 13.9754L0.611794 8.63729H9.69357L12.5 0Z" fill="#FFE70E"/>
<path d="M68.5 0L71.3064 8.63729H80.3882L73.0409 13.9754L75.8473 22.6127L68.5 17.2746L61.1527 22.6127L63.9591 13.9754L56.6118 8.63729H65.6936L68.5 0Z" fill="#FFE70E"/>
</svg>
